<?xml version="1.0" encoding="UTF-8"?>
<svg id="Warstwa_1" data-name="Warstwa 1" xmlns="http://www.w3.org/2000/svg" version="1.1" viewBox="0 0 1295 607">
  <defs>
    <style>
      .cls-1 {
        fill: #fff;
        stroke-width: 0px;
      }
    </style>
  </defs>
  <path class="cls-1" d="M880.7,442.83c2.02,2.7,3.18,4.2,4.28,5.74,11.11,15.62,24.7,28.08,43.82,32.83,18.06,4.48,34.5,1.36,47.7-12.6,13.16-13.92,12.34-33.25-3.11-44.52-9.25-6.74-20.35-11.09-30.95-15.77-11.85-5.24-24.2-9.36-36.09-14.52-4.97-2.16-9.65-5.33-13.87-8.78-15.25-12.48-17.67-33.24-6.07-49.27.85-1.17,1.67-2.36,3.09-4.39-14.44,3.62-25.57,10.49-30.32,23.78-4.22,11.8-6.41,24.34-9.23,36.62-1.1,4.8-1.49,9.76-3.09,14.61-1.48-9.45-2.73-18.95-4.51-28.34-1.18-6.19-2.81-12.33-4.78-18.31-4.4-13.35-13.17-22.74-26.78-26.79-8.74-2.6-17.72-4.39-26.6-6.5-3.2-.76-5.13.46-5.6,3.83-.53,3.78-1.6,7.55-1.62,11.33-.23,44.68-.28,89.36-.5,134.04-.02,4.04,1.15,5.48,5.38,5.46,19.48-.1,39.01.5,58.01-5,10.8-3.13,20.8-7.3,24.48-19.82v26.75h-117.6c.25-.74.3-1.47.56-1.56,9.97-3.48,12.58-6.55,13.07-17.18.58-12.48.92-24.97.99-37.46.14-25.17.15-50.35-.06-75.52-.05-6.46-.9-12.94-1.8-19.36-.91-6.51-4.09-11.23-11.38-11.83-.49-.04-.93-.65-2.56-1.86,2.96-.21,4.65-.44,6.35-.44,13.33.03,26.66.09,40,.17,19.84.11,39.15-12.8,45.58-31.5,3.36-9.78,5.26-20.06,8.12-31.28h-115.38c.97-1.28,1.22-1.92,1.51-1.94,8.26-.62,11.28-6.25,12.46-13.33.71-4.26,1.15-8.61,1.16-12.92.09-36.34.09-72.69,0-109.04-.01-4.31-.48-8.66-1.17-12.92-1.22-7.52-4.67-13.18-13.87-13.3.24-.46.47-.91.71-1.37h45.21c-1.31.97-1.76,1.6-2.25,1.63-7.96.51-10.57,6.11-11.8,12.71-.76,4.07-1.22,8.27-1.24,12.41-.12,43.51-.07,87.03-.24,130.54-.02,4.19,1.29,5.34,5.39,5.32,19.65-.07,39.41.67,58.46-5.25,5.91-1.83,11.74-4.83,16.66-8.55,3.2-2.42,4.69-7.11,7.5-11.69.18,2.97.46,5.17.41,7.36-.33,15.1,2.23,29.8,5.71,44.43,4.72,19.84,17.06,31.42,36.62,36.72,10.87,2.95,21.01,1.87,31.79-.12,20.16-3.71,40.12-1.06,59.57,5.21,1.25.4,2.93,2.06,2.98,3.2.28,6.6.14,13.23-.99,20.32-.75-.86-1.7-1.61-2.23-2.59-11.04-20.43-31.68-27.11-53.65-24.19-11.8,1.57-22.07,6.13-29.8,15.52-12.17,14.79-9.77,33.72,6.76,43.14,10.59,6.03,22.52,9.75,33.88,14.4,10.15,4.15,20.65,7.58,30.47,12.38,15.54,7.59,25.97,19.46,25.53,37.85-.39,16.14-9.3,27.69-22.72,35.36-25.35,14.48-51.18,13.46-76.8.35-17.13-8.76-18.28-11.06-16.51-30.17.07-.78.36-1.53.96-4.01Z"/>
  <path class="cls-1" d="M408.85,174.83c.77,17.88-.11,35.41-7.21,52.05-6.69,15.68-17.45,27.17-34.81,30.78-12.69,2.64-24.9,1.9-33.63-9.28-8.87-11.35-9.85-24.08-4.18-37.2,4.08-9.43,11.05-16.7,19.16-22.66,9.93-7.29,20.4-13.82,30.48-20.91,3.79-2.66,7.34-5.75,10.59-9.05,2.29-2.33,3.81-5.9.9-8.42-2.74-2.38-5.66-.26-7.79,2.09-2.68,2.97-5.11,6.17-7.87,9.04-1.58,1.64-3.46,3.21-5.5,4.17-4.88,2.29-8.4-.29-7.84-5.59.15-1.47.61-2.93,1.13-4.32,8.13-21.64,16.28-43.27,24.46-64.89.55-1.45,1.4-2.78,1.99-3.92.88.11,1.18.09,1.19.15,2.17,7.24,7.55,6.22,12.95,4.99,8.26-1.87,16.56-3.56,24.74-5.75,16.52-4.43,26.53-15.68,30.59-31.84,3.07-12.22,4.82-24.77,7.15-37.18.26-1.41.44-2.84.66-4.26.42-.02.84-.04,1.27-.06.85,5.88,1.51,11.8,2.61,17.63,1.57,8.32,3.13,16.67,5.3,24.85,5.34,20.19,20.11,29.66,39.39,33.6,3.39.69,6.92.97,10.39.99,18.5.09,37,.23,55.49-.07,5-.08,6.38,1.61,6.1,6.27-.32,5.33-.07,10.69-.77,16.14-6.56-14.7-20.15-16.09-32.94-18.63-4.37-.87-8.93-.76-13.4-1.13-2.52-.21-3.77.83-3.62,3.44.06,1-.03,2-.02,3,.02,43.84,0,87.68.1,131.52,0,3.98.51,7.98,1.09,11.92,1.01,6.85,5.06,10.88,12.59,11.32-.21.43-.42.86-.63,1.29h-43.52c1.32-.89,1.97-1.68,2.69-1.76,6-.69,9.21-4.33,10.4-9.89.83-3.89,1.75-7.86,1.77-11.8.23-42.01.29-84.01.38-126.02,0-1.46-.25-2.92-.38-4.34-19.94-.06-38.54,12.6-44.2,31.63-3.86,12.99-5.58,26.62-8.24,39.97-.33,1.65-.55,3.33-1.92,4.93-1.51-9.44-2.8-18.93-4.61-28.32-1.16-6.02-2.77-11.99-4.71-17.8-4.46-13.36-13.4-22.65-26.98-26.61-11.05-3.22-22.37-5.52-34.9-8.55,1.15,3.64,1.64,5.52,2.32,7.33,15.2,40.14,30.41,80.28,45.66,120.4,1.54,4.04,3.2,8.04,5.02,11.96,3.75,8.08,7.74,16.02,17.7,18.77h-53.54c-.06-.36-.12-.72-.18-1.08,1.63-.24,3.25-.56,4.88-.72,11.42-1.13,16.2-7.06,13.8-18.17-1.32-6.14-3.53-12.12-5.71-18.03-5.16-14.03-10.54-27.99-15.83-41.97ZM383.44,107.97c-.81,1.25-1.27,1.75-1.49,2.33-5.78,15.41-11.54,30.84-17.3,46.26-.23.62-.7,1.28-.62,1.87.21,1.69.65,3.35,1,5.02,1.54-.33,3.23-.36,4.56-1.07,1.42-.76,2.56-2.1,3.69-3.32,2.83-3.05,5.46-6.3,8.4-9.24,2.76-2.75,6.72-4.86,9.7-1.93,1.96,1.93,2.04,6.2,2.13,9.45.05,1.73-1.36,3.82-2.68,5.2-3.2,3.36-6.5,6.7-10.16,9.53-7.11,5.5-14.74,10.34-21.69,16.02-11.59,9.47-19.03,21.13-18.28,36.97.82,17.37,14.97,28.32,31.89,24.37,11.87-2.77,19.31-10.78,24.57-21.04,9.74-18.98,11.44-39.38,7.46-59.84-2.39-12.27-7.62-24.01-11.8-35.91-2.84-8.1-6.08-16.06-9.37-24.68Z"/>
  <path class="cls-1" d="M285.36,100.28c-17.71,47.72-35.43,95.43-53.14,143.15-.66.11-1.31.22-1.97.33-21.5-46.09-42.99-92.18-65.16-139.7-.14,2.66-.25,3.85-.25,5.04-.02,29.17-.47,58.35.19,87.5.27,12.03,2.13,24.17,4.72,35.94,2.41,10.97,8.74,19.45,21.28,20.83.34.04.62.62,1.53,1.61h-45.14c.51-.82.71-1.51.98-1.53,9.42-.8,11.74-7.67,12.77-15.3.71-5.27,1.07-10.62,1.08-15.94.09-33,.09-66,0-99-.02-5.32-.39-10.67-1.08-15.94-1.05-8.05-3.65-15.09-14.19-15.32.22-.46.44-.91.66-1.37,1.12-.23,2.23-.64,3.35-.65,6.16-.07,12.34.2,18.49-.12,3.76-.2,5.59,1.23,7.16,4.55,18.93,40.02,38,79.97,57.04,119.94,1.05,2.21,2.16,4.4,3.78,7.69,3.24-8.63,6.09-16.17,8.9-23.73,12.7-34.14,25.46-68.26,37.99-102.46,1.6-4.36,3.57-6.33,8.49-6.02,7.59.48,15.24.13,22.87.13.1.4.21.81.31,1.21-.83.44-1.62,1.15-2.48,1.26-5.32.69-8.45,3.9-9.67,8.81-1.03,4.17-1.97,8.5-1.99,12.76-.15,39.16-.13,78.33-.03,117.49,0,3.63.63,7.3,1.39,10.86,1.29,6.02,4.43,10.39,11.21,10.92.53.04,1.01.59,2.89,1.75h-45.81c.38-.72.56-1.45.8-1.47,9.84-.76,12.07-8,12.9-16.78.76-8.11,1.02-16.29,1.04-24.45.11-35.67.05-71.34.05-107,0-1.59,0-3.18,0-4.77-.33-.06-.65-.13-.98-.19Z"/>
  <path class="cls-1" d="M301.82,317.97c3.99,0,8.1.6,11.96-.11,11.4-2.09,16.64,2.98,21.31,13.3,17.22,38.05,35.64,75.56,53.62,113.27.71,1.49,1.48,2.95,2.75,5.48.97-2.46,1.62-4.03,2.21-5.62,14.92-40.06,29.91-80.09,44.63-120.22,1.7-4.63,3.76-6.56,8.86-6.23,7.52.49,15.1.13,24.08.13-1.62,1.53-2.02,2.24-2.46,2.28-8.1.65-11.09,6.19-11.86,13.13-.86,7.76-1.38,15.6-1.39,23.4-.04,34,.13,68,.34,102,.02,3.64.56,7.3,1.21,10.89,1.29,7.13,5.33,11.64,13.45,11.88-.21.45-.43.91-.64,1.36h-44.25c.32-.71.41-1.23.57-1.25,10.88-1.36,12.99-9.51,13.11-18.16.55-39.98.74-79.97,1.04-119.96.04-4.99,0-9.97-.95-15.23-17.75,47.79-35.49,95.58-53.24,143.37-.64.04-1.28.09-1.93.13-21.51-46.11-43.01-92.22-64.91-139.19,0,35.32-.35,69.58.23,103.82.15,8.98,2.5,18.11,5.05,26.81,2.88,9.82,9.08,17.01,20.24,18.12.39.04.73.54,2.05,1.59h-45.15c.18-.51.23-1.24.49-1.33,9.94-3.43,12.57-6.54,13.06-17.17.58-12.31.93-24.63.99-36.95.14-25.5.14-51-.06-76.5-.05-6.29-.9-12.6-1.79-18.85-.92-6.49-4.04-11.26-11.35-11.85-.5-.04-.95-.64-1.43-.98.05-.45.09-.91.14-1.36Z"/>
  <path class="cls-1" d="M858.78,254.83c.39-.75.51-1.26.69-1.28,10.03-1.09,12.46-8.26,13.02-16.61.56-8.3.95-16.62.97-24.94.09-31,.07-62-.12-93-.03-5.28-.88-10.6-1.77-15.83-1.05-6.14-4.3-10.4-11.08-10.94-.54-.04-1.04-.58-2.29-1.32,1.54-.49,2.34-.93,3.17-.98,16.77-1.07,33.54-2.01,50.31-3.16,38.26-2.63,66.98,17.36,77.35,54.38,7.04,25.14,6.3,50.13-4.03,74.29-12.39,28.97-37.28,44.57-68.8,43.31-18.61-.74-37.2-2.19-55.8-3.34-.45-.03-.88-.31-1.63-.59ZM978.64,167.94c-.68-5.06-1.38-14.88-3.41-24.43-3.64-17.14-10.74-32.73-25.23-43.54-18.14-13.54-38.3-12.1-58.68-6.48-1.16.32-2.44,2.57-2.53,3.99-.32,4.98-.14,9.99-.14,14.99,0,44.48.06,88.96-.09,133.44-.02,4.34,1.38,6.45,5.57,7.04,5.42.76,10.8,1.94,16.24,2.48,23.16,2.29,41.46-5.96,53.92-25.86,10.87-17.36,13.84-36.81,14.35-61.62Z"/>
  <path class="cls-1" d="M1147.93,255.03h-54.25c-.07-.38-.14-.77-.22-1.15,1.23-.28,2.45-.71,3.69-.81,13.33-1.08,18.54-7.61,14.56-20.43-4.62-14.9-10.5-29.42-15.87-44.09-1.63-4.46-3.37-8.88-4.89-12.87-.68,10.71-.65,21.7-2.21,32.46-2.44,16.75-9,31.72-23.2,42.15-10.49,7.7-22.51,10.31-35.06,7.74-17.53-3.59-27.2-23.56-21.27-42.49,3.71-11.84,11.87-20.4,21.47-27.5,10.03-7.42,20.7-13.95,30.89-21.17,3.76-2.66,7.32-5.84,10.16-9.43,1.25-1.58.47-4.77.61-7.24-2.53.49-5.48.33-7.48,1.63-2.41,1.57-3.99,4.4-5.99,6.63-1.67,1.86-3.12,4.28-5.22,5.27-2.58,1.21-6.18,2.35-8.55,1.44-3.63-1.39-2.64-5.28-1.51-8.32,5.69-15.27,11.46-30.51,17.22-45.76,2.53-6.69,5.05-13.38,7.64-20.04.61-1.58,1.5-3.06,2.88-5.84,1.48,3.19,2.47,5,3.2,6.92,16.75,44.16,33.44,88.34,50.24,132.49,2.13,5.59,4.61,11.06,7.29,16.4,3.07,6.12,7.2,11.25,14.62,12.39.31.05.53.67,1.24,1.63ZM1065.6,108.73c-.4.02-.8.04-1.2.06-5.74,15.2-11.61,30.36-17.11,45.65-.97,2.68-.42,5.91-.57,8.89,2.76-1.38,5.91-2.3,8.18-4.24,3.51-3.01,6.03-7.25,9.72-9.95,2.14-1.56,6.33-2.31,8.5-1.22,1.77.89,3.04,5.3,2.49,7.68-.82,3.52-2.87,7.19-5.43,9.78-4.07,4.1-8.96,7.39-13.54,10.98-6.81,5.33-14,10.24-20.38,16.03-8.42,7.64-13.47,17.27-13.74,28.95-.24,10.4,2.32,19.71,11.93,25.25,9.82,5.66,19.82,4.66,29.39-.95,7.14-4.18,11.86-10.62,15.52-17.86,9.23-18.27,10.18-37.8,7.44-57.5-1.15-8.27-4.33-16.33-7.14-24.28-4.43-12.51-9.33-24.85-14.03-37.25Z"/>
  <path class="cls-1" d="M1289.1,483.14h-53.65c-.06-.42-.12-.84-.18-1.26,1.42-.26,2.84-.64,4.28-.76,12.45-1.08,17.81-7.66,14.12-19.52-4.88-15.69-10.97-31.01-16.58-46.48-1.3-3.57-2.73-7.1-5.03-10.63,0,3.27-.07,6.55.01,9.82.43,16.56-1.78,32.6-10.08,47.25-9.06,15.99-22.58,24.87-41.3,25.33-16.94.42-30.22-12.01-31.3-28.99-.98-15.42,5.9-27.25,17.02-36.58,9.27-7.78,19.65-14.24,29.5-21.34,5.26-3.79,10.66-7.44,15.53-11.69,2.77-2.42,6.18-6.43,2.45-9.8-3.75-3.4-6.88.63-9.45,3.44-3.04,3.31-5.59,7.22-9.11,9.86-2.11,1.58-6.13,2.38-8.48,1.46-3.55-1.4-2.62-5.22-1.45-8.32,8.43-22.42,16.87-44.83,25.34-67.23.39-1.03,1.11-1.93,2.31-3.96,1.28,2.54,2.33,4.24,3.03,6.07,16.65,43.85,33.24,87.71,49.89,131.56,1.59,4.2,3.24,8.39,5.19,12.43,3.92,8.1,7.54,16.62,18.54,17.86-.2.5-.4,1-.59,1.5ZM1206.5,336.8c-.84,1.86-1.65,3.43-2.27,5.07-5.05,13.37-10.08,26.75-15.09,40.14-.64,1.71-1.39,3.44-1.62,5.22-.17,1.31,0,3.29.82,3.91.84.64,3.03.5,3.97-.19,2.38-1.75,4.46-3.93,6.55-6.06,2.44-2.49,4.37-5.77,7.26-7.46,2.5-1.46,6.48-2.36,8.97-1.38,3.43,1.34,3.84,5.73,2.17,8.73-2.45,4.4-5.3,8.95-9.07,12.16-6.95,5.92-14.77,10.79-22.07,16.31-11.34,8.58-20.24,18.88-21.85,33.75-1.78,16.41,7.48,32.39,27.25,31.12,14.01-.9,22.73-9.42,28.86-20.98,10.8-20.36,12.3-42.46,7-64.09-4.59-18.75-12.9-36.6-19.59-54.84-.15-.4-.61-.69-1.28-1.41Z"/>
  <path class="cls-1" d="M296.38,483.1h-53.51l-.18-1.21c1.27-.26,2.53-.64,3.82-.75,13.03-1.12,18.08-7.42,14.53-20.11-3.09-11.02-7.56-21.65-11.52-32.42-3.15-8.57-6.43-17.09-9.28-24.62-.77,10.67-.94,22.31-2.61,33.72-2.06,14.1-7.68,26.88-18.35,36.86-11.25,10.53-24.83,14.42-39.7,11.49-17.02-3.35-26.72-22.63-21.64-41.08,3.31-12.02,11.23-20.78,20.77-27.98,9.96-7.51,20.65-14.04,30.84-21.24,3.91-2.76,7.82-5.83,10.79-9.51,1.45-1.8,1.98-6.45.73-7.85-2.38-2.66-5.51-.51-7.64,1.84-2.8,3.08-5.31,6.43-8.24,9.38-1.71,1.72-3.82,3.31-6.05,4.21-4.19,1.7-7.37-.77-7.08-5.28.12-1.79.67-3.6,1.31-5.3,8.06-21.49,16.17-42.97,24.3-64.43.55-1.46,1.39-2.82,2.74-5.5,1.51,3.21,2.58,5.15,3.36,7.2,16.65,43.85,33.25,87.73,49.9,131.58,1.65,4.35,3.4,8.68,5.41,12.88,3.7,7.74,7.72,15.27,17.67,16.74-.12.46-.25.92-.37,1.38ZM214.74,336.77l-1.25.13c-5.94,15.86-11.96,31.69-17.7,47.62-.73,2.04,0,4.6.07,6.93,2.3-.9,5.09-1.26,6.81-2.81,3.57-3.21,6.48-7.15,9.86-10.59,2.72-2.77,6.19-4.57,9.87-2.31,3.84,2.35,3.14,6.53,2.03,9.96-.89,2.74-2.71,5.41-4.76,7.47-3.27,3.29-6.97,6.18-10.68,8.99-6.24,4.72-12.86,8.96-18.9,13.91-11.73,9.62-19.24,21.37-18.4,37.41.89,17.03,15.05,27.99,31.71,24.09,13.9-3.25,21.77-13.16,26.77-25.44,9.49-23.27,9.82-47.01,1.44-70.69-5.31-15-11.22-29.79-16.86-44.68Z"/>
  <path class="cls-1" d="M478.86,318.76c2.5-.43,3.55-.71,4.61-.77,20.09-1.13,40.18-2.3,60.28-3.31,13.89-.7,27.35,1.11,39.12,9.2,17.39,11.95,23.03,29.41,20.68,49.34-2.36,19.96-13.6,34.06-32.5,41.34-17.94,6.91-35.95,4.61-53.84-.66-2.19-.65-4.39-1.27-6.39-1.84-.41.43-.61.55-.61.67.36,18.77.43,37.55,1.27,56.29.31,6.87,4.3,11.81,11.97,12.42.45.04.87.38.84,1.61h-44.05c.18-.67.22-1.21.35-1.23,11.94-2.12,13.08-9.28,13.61-21.56.79-18.3.5-36.64.51-54.97,0-20.49-.13-40.98-.33-61.48-.04-3.81-.49-7.65-1.16-11.4-1.3-7.29-2.94-8.8-14.34-13.66ZM509.8,365.92c0,12.84.12,25.67-.08,38.5-.05,3.47,1.05,5.36,4.43,5.89,9.17,1.44,18.29,3.48,27.51,4.17,14.02,1.04,26.26-3.38,35.59-14.43,7.36-8.72,11.09-19.01,11.73-30.21,1.11-19.28-6.08-39.26-27.08-47.9-16.33-6.72-32.92-5.3-49.3.06-1.32.43-2.64,3.21-2.67,4.92-.22,13-.12,26-.12,39Z"/>
  <path class="cls-1" d="M736.48,318.62v22.64c-8.37-17.02-23.9-17.9-38.25-19.45-14.85-1.6-29.93-.99-44.91-1.4-2.82-.08-4.84.29-4.83,3.91.09,20.67.06,41.35.09,62.02,0,.61.3,1.23.39,1.57,5.32-1.64,10.48-4.54,15.62-4.5,6.97.05,13.99,2.07,20.86,3.77,4.65,1.15,8.99,3.56,13.63,4.79,8.55,2.27,16.59,2.31,20.81-8.26,1.5,5.71-.7,10.96-5.94,14.56-9.18,6.31-19.02,5.37-28.63,1.49-5.98-2.42-11.48-6.01-17.24-9-5.12-2.66-10.54-3.85-15.62-.42-1.87,1.26-3.77,4.11-3.79,6.25-.26,26.67-.18,53.35-.15,80.02,0,2.12-.27,4.53,3.08,4.56,20.82.16,41.72.84,61.94-5.35,5-1.53,10.14-3.82,14.14-7.09,3.61-2.95,5.75-7.71,8.6-11.75v26.2h-117.9c.6-.93.82-1.61,1.09-1.63,9.43-.81,11.73-7.69,12.76-15.32.71-5.27,1.07-10.63,1.08-15.94.09-33.01.09-66.02,0-99.03-.02-5.32-.35-10.68-1.09-15.94-1.12-7.95-3.46-15.22-14.34-15.18.33-.49.65-.99.98-1.48h117.62Z"/>
  <path class="cls-1" d="M50.09,318.69c-13.43,2.36-13.49,13.23-13.96,22.63-.78,15.8-.3,31.66-.32,47.49,0,.26.31.51.67,1.08,10.26-9.26,21.89-7.77,33.75-4.18,7.15,2.17,14.24,4.59,21.47,6.43,8.31,2.12,15.97,1.73,19.79-8.22.37.18.74.36,1.11.53-.18,1.74-.06,3.59-.6,5.21-3.32,9.94-14.87,15.51-27.38,12.22-7.96-2.09-15.48-5.85-23.24-8.76-4.48-1.68-8.93-3.92-13.57-4.55-7.04-.95-11.88,3.12-11.87,10.25.02,22.81.27,45.64,1.04,68.44.29,8.57,2.91,10.63,13.23,15.64H5.59c.49-.7.71-1.35,1-1.38,8.57-.86,11.28-5.46,12.64-14.79.79-5.42,1.06-10.95,1.08-16.43.08-34.51.06-69.01-.04-103.52-.01-4.48-.46-8.99-1.16-13.42-1.19-7.52-4.65-13.19-13.8-13.36l.64-1.34h44.14Z"/>
  <path class="cls-1" d="M591.13,90.36h45.19c.07.42.14.84.21,1.26-1.46.26-2.91.59-4.37.76-5.13.6-7.82,3.14-7.2,8.19.5,4.04,1.68,8.22,3.54,11.83,9.06,17.62,18.42,35.07,27.73,52.56,2.71,5.09,5.59,10.1,8.48,15.3.73-.68,1.21-.95,1.42-1.35,11.46-22.74,22.94-45.46,34.27-68.27,1.46-2.93,2.44-6.24,2.94-9.48.89-5.72-1.52-8.33-7.33-8.77-1.71-.13-3.42-.33-5.13-.51.03-.45.07-.9.1-1.35h34.67c.07.32.15.63.22.95-2.06.7-4.59.88-6.08,2.21-3.54,3.17-7.42,6.42-9.69,10.47-10.66,19.03-19.95,38.87-31.41,57.38-9.77,15.78-15.02,31.83-12.9,50.37,1.09,9.57.97,19.27,1.89,28.86.67,6.95,4.19,11.87,11.86,12.56.42.04.81.44.89,1.61h-44.01c-.32-.4-.64-.79-.95-1.19.64-.17,1.27-.44,1.93-.5,8.08-.63,11.52-6.14,11.87-13.09.88-17.79,1.08-35.61,1.38-53.42.03-1.69-.96-3.51-1.81-5.09-13.25-24.64-26.51-49.27-39.87-73.85-4.07-7.49-8.31-14.97-18.37-16.06.18-.46.37-.92.55-1.38Z"/>
  <path class="cls-1" d="M146.79,483.23h-44.24c.36-.86.51-1.63.72-1.65,9.66-.85,11.94-7.91,12.93-15.72.69-5.44,1.05-10.96,1.06-16.44.09-32.5.14-64.99-.03-97.49-.03-6.46-.85-12.94-1.71-19.36-.89-6.66-3.95-11.66-11.5-12.3-.48-.04-.91-.66-2.37-1.77h45.21c-.08.69-.07.98-.11.99-11.79,1.98-13.69,11.16-13.76,20.49-.31,40.49-.18,80.98-.06,121.48.01,3.43.97,6.9,1.79,10.29,1.28,5.35,4.48,8.81,10.23,9.45.71.08,1.37.58,2.06.88-.07.39-.14.77-.2,1.16Z"/>
  <path class="cls-1" d="M1054.41,483.19h-43.84c.14-.74.13-1.27.28-1.33,10.48-3.75,13.23-7.39,13.55-19.53.48-18.16.89-36.32.87-54.48-.02-22.49-.45-44.99-.84-67.48-.06-3.3-.68-6.62-1.39-9.86-1.45-6.58-5.66-10.29-12.96-10.44.19-.46.38-.92.57-1.39h43.77c-.08.41-.09.97-.19.98-10.82,1.66-12.89,9.73-13.3,18.65-.53,11.48-.88,22.97-.94,34.46-.13,25-.1,50.01.02,75.01.03,5.99.36,12.01,1.07,17.95.98,8.19,3.41,15.53,14.25,15.85-.3.53-.61,1.07-.91,1.6Z"/>
  <path class="cls-1" d="M1107.08,317.99c5.03,0,9.56-.4,13.95.2,1.76.24,3.99,2.4,4.68,4.2,4.58,11.91,2.44,23.28-4,33.89-6.63,10.93-16.71,18.13-28.01,23.37-11,5.1-22.44,9.23-33.66,13.84-3.07,1.26-6.21,2.48-9.04,4.18-3.45,2.06-3.39,5.01.19,6.86,2.93,1.51,6.13,2.63,9.33,3.44,16.45,4.16,29.47,12.77,37.76,27.98,2.3,4.23,5.09,8.22,7.9,12.15,9.96,13.93,18.18,29.77,37.02,34.87-1.15.21-2.3.59-3.45.61-6.17.06-12.35-.28-18.49.12-5.66.37-9.69-1.88-12.73-6.28-5.77-8.36-11.43-16.8-17.15-25.2-5.81-8.54-10.91-17.7-17.68-25.4-5.95-6.75-13.41-12.38-20.87-17.53-9-6.21-9.44-11.38.09-16.98,6.45-3.79,13.3-6.88,19.94-10.33,11.58-6.01,22.94-12.38,30.76-23.31,8.92-12.48,11-25.7,3.45-40.69Z"/>
  <path class="cls-1" d="M473.95,556.25c8.64,0,16.77-.42,24.83.16,4.59.33,7.78,3.63,8.68,8.45,1.08,5.79-1.8,9.54-7.19,12.37,5.45,2.95,7.15,7.37,6.71,12.99-.14,1.84.79,3.76,1.23,5.65,1.71-.58,3.43-1.16,4.95-1.68-1.1,4.28-4.2,6.56-9.14,6.43-4.47-.12-7.26-2.36-7.87-6.79-.48-3.44-.05-7.07-.93-10.38-.51-1.93-2.67-3.53-4.37-4.95-.26-.22-2.9,1.31-2.94,2.12-.28,5.15-.26,10.32-.07,15.47.04,1.07,1.24,2.09,2.04,3.34h-16.17M488.08,556.45v20.97c3.11-1.77,6.68-2.66,6.98-4.18.81-4.16.76-8.69-.09-12.84-.3-1.49-3.87-2.31-6.89-3.95Z"/>
  <path class="cls-1" d="M818.39,599.47h-15.08c0-1.58.49-3.27-.08-4.44-2.61-5.36-5.51-10.58-8.44-16.11-2.09,5.81-1.45,17.2,1.27,20.35h-15.5c.58-1.74,1.72-3.6,1.75-5.48.17-10.67.16-21.34,0-32.01-.03-1.79-1.06-3.56-1.76-5.75h13.96c-.39,6.01-.77,11.81-1.18,18.04,6.03-2.96,15.5-14.58,15-18.13h7.13c-4.16,4.26-8.42,8.4-12.34,12.85-.73.82-.57,3.16.06,4.32,4.01,7.48,8.25,14.85,12.46,22.23.91,1.6,2.04,3.08,2.75,4.12Z"/>
  <path class="cls-1" d="M413.52,583.42h15.53c-.75,1.85-1.32,3.56-2.11,5.16-1.24,2.51-2.02,5.81-4.06,7.27-8.26,5.89-17.37,6.69-26.26,1.57-8.56-4.93-11.44-13.02-10.4-22.57,1.03-9.5,5.87-16.38,15.22-18.85,4.15-1.09,8.82-.38,13.25-.22,2.72.1,5.43.69,8.72,1.14v9.68c-.29.13-.57.26-.86.39-.71-1.12-1.46-2.21-2.14-3.35-2.94-5.01-8.21-7.71-13.34-6.81-4.68.82-7.79,4.1-8.2,10.5-.49,7.58-.32,15.24.11,22.83.21,3.72,2.07,7.19,6.38,7.92,3.5.59,7.36.9,9.2-3.01,1.78-3.79,2.39-7.85-1.04-11.65Z"/>
  <path class="cls-1" d="M640.87,555.65c9.26,0,18.03-.11,26.78.14,1.07.03,2.78,1.9,2.99,3.12.46,2.7.14,5.53-.35,8.76-2.58-7.2-6.63-11.71-15.51-9.47,0,4.81-.09,9.75.09,14.68.03.86,1.26,2.44,1.81,2.39,1.68-.17,3.64-.58,4.84-1.63,1.12-.98,1.42-2.9,2.83-4.39v16.1c-2.26-4.34-2.94-9.56-9.35-7.05-.11,6.79-1.28,13.86.88,21.01-4.28,0-9.47,0-14.67,0,3.07-3.4,3.22-39.22-.33-43.66Z"/>
  <path class="cls-1" d="M873.28,599.39h-7.61c1.73-3.81,3.84-7.7,5.29-11.83,3.31-9.39,6.2-18.92,9.5-28.31.55-1.56,2.32-2.7,3.52-4.03,1.33,1.38,3.32,2.53,3.9,4.17,4.08,11.58,7.81,23.28,11.81,34.89.61,1.78,2.07,3.27,3.2,5.01h-15.59c1.72-2.07.91-11-1.6-11.69-3.77-1.04-8.2-1.14-11.98-.18-2.77.7-2.87,8.9-.45,11.98ZM880.25,569.77l-1.28-.16c-1.5,4.6-2.99,9.21-4.64,14.27h10.53c-1.68-5.15-3.14-9.63-4.61-14.12Z"/>
  <path class="cls-1" d="M595.32,599.38h-15.27c1.62-2.44.49-11.57-1.81-12.01-3.89-.75-8.36-1.02-11.98.24-2.97,1.03-2.75,8.52-.15,11.72h-8.01c1.61-3.11,3.58-6.04,4.71-9.27,3.64-10.34,6.87-20.83,10.52-31.16.52-1.48,2.35-3.14,3.82-3.42.9-.17,2.85,1.93,3.34,3.35,3.95,11.47,7.61,23.04,11.52,34.52.72,2.12,2.16,3.99,3.3,6.03ZM577.57,584.12c-1.71-5.37-3.23-10.12-4.74-14.87-.35-.02-.7-.04-1.04-.06-1.51,4.81-3.01,9.61-4.68,14.92h10.46Z"/>
  <path class="cls-1" d="M717.27,555.95h16.07c-3.59,4.38-3.47,40.14.5,43.32h-15.92c2.92-4.28,2.73-39.24-.65-43.32Z"/>
</svg>