<?xml version="1.0" encoding="UTF-8"?>
<svg id="Warstwa_1" data-name="Warstwa 1" xmlns="http://www.w3.org/2000/svg" version="1.1" viewBox="0 0 5000 5000">
  <defs>
    <style>
      .cls-1 {
        fill: #000;
      }

      .cls-1, .cls-2 {
        stroke-width: 0px;
      }

      .cls-2 {
        fill: #fff;
      }
    </style>
  </defs>
  <path class="cls-2" d="M3645.21,2427.2c-2.95-4.68-5.98-9.31-8.85-14.04-28.58-47.13-71.33-70.07-125.5-73.24-32.39-1.9-64.43,1.45-93.37,16.42-39.52,20.44-66.66,50.72-67.99,98.42-.76,27.31,9.61,50.31,31.73,64.52,24.41,15.68,50.98,28.55,77.83,39.74,46.12,19.22,93.83,34.67,139.63,54.57,35.59,15.46,63.91,40.7,77.09,79.01,18.38,53.46-.19,110.44-51.04,145.94-75.87,52.96-157.63,55.97-241.31,20.49-21.88-9.28-42.21-22.6-62.24-35.61-5.47-3.56-9.8-12.58-10.29-19.41-1.37-19.3-.48-38.76-.48-58.15,1.84-.54,3.68-1.08,5.52-1.62,3.75,4.44,7.84,8.63,11.18,13.36,35.69,50.55,79.47,90.65,141.22,106.11,52.77,13.21,101.98,5.53,143.35-31.9,54.05-48.9,50.14-118.76-10.99-158.15-29.63-19.09-63.69-31.59-96.39-45.56-35.7-15.25-72.54-27.84-108.08-43.43-15.87-6.96-30.88-17.06-44.38-28.06-48.96-39.88-56.95-105.93-20.16-157.55,2.64-3.71,5.13-7.53,9.4-13.82-45.75,11.43-80.76,33.61-95.75,75.59-13.48,37.76-20.51,77.86-29.54,117.13-3.52,15.29-4.72,31.1-10.21,46.53-4.68-29.7-9.13-59.43-14.15-89.08-2.13-12.56-5.35-24.95-8.21-37.38-14.3-62.09-52.21-101-114.34-115.7-20.69-4.89-41.62-8.77-62.42-13.21-10.98-2.35-17.53,1.52-19.11,12.95-1.74,12.62-5.02,25.22-5.08,37.84-.67,141.27-.7,282.55-1.35,423.82-.07,14.13,3.78,19.58,18.99,19.49,61.8-.37,123.86,1.76,183.81-16.57,18-5.5,36.32-13.59,51.06-24.95,11.51-8.87,17.7-24.64,28.92-41.31,0,14.81.3,26.54-.07,38.25-.54,16.84,4.47,39.04-4.25,48.88-7.53,8.49-30.93,3.42-47.31,3.44-102.36.17-204.72.11-307.08.03-6.41,0-12.81-.84-21.5-1.46,3.21-3.59,4.08-5.49,5.13-5.6,30.15-3.12,36.8-25.58,39.99-49.8,2.29-17.39,3.4-35.04,3.45-52.59.31-103.96.31-207.92,0-311.87-.05-17.54-1.23-35.2-3.5-52.59-3.35-25.62-11.3-48.44-45.63-49.04.91-1.69,1.82-3.38,2.73-5.07,4.13-.64,8.25-1.81,12.38-1.83,41.58-.12,83.18-.69,124.75.11,72.78,1.41,133.77-39.9,155.97-108.77,8.12-25.19,12.49-51.61,18.2-77.55,3.33-15.15-7.8-13.23-16.75-13.23-108.22-.04-216.45-.02-324.67-.03-6.66,0-13.33,0-19.99,0l-.81-3.73c2.21-1.46,4.28-3.92,6.64-4.22,19.93-2.52,30.03-15.1,33.49-33.46,2.84-15.11,5.86-30.5,5.92-45.78.49-118.35.38-236.7.11-355.05-.03-12.72-1.55-25.56-3.68-38.12-4.05-23.88-14.52-42.48-44.66-42.47.94-1.64,1.89-3.27,2.83-4.91h145.01c-5.8,3.16-8.33,5.53-11.14,5.91-17.79,2.39-27.9,13.58-31.33,29.84-3.6,17.09-6.62,34.69-6.7,52.08-.62,137.54-.3,275.09-.81,412.63-.05,14.33,3.73,19.53,18.86,19.45,61.8-.34,123.71,1.26,183.94-16.16,34.53-9.99,66.61-23.39,74.31-65.7,1.45.58,2.9,1.17,4.35,1.75.65,7.41,2.05,14.85,1.84,22.23-1.42,49.41,6.83,97.48,18.5,145.26,16.71,68.38,63.11,102.87,129.1,116.94,23.77,5.07,46.08,6.1,70.46.24,70.66-16.99,140.6-8.28,209.23,13.27,3.76,1.18,9.04,5.81,9.16,8.99.81,21.61.42,43.26.42,64.89-1.8.54-3.59,1.08-5.39,1.62Z"/>
  <path class="cls-2" d="M2373.25,1683.29c-35.88-59.98-94.73-57.63-150.09-62.61-3.64-.33-9,6.41-11.63,10.97-1.86,3.22-.53,8.33-.53,12.59.03,137.53-.02,275.06.27,412.59.03,13.78,1.57,27.64,3.46,41.32,3.03,21.96,15.02,35.86,40.14,36.52-.72,1.53-1.45,3.07-2.17,4.6h-136.49c.6-1.87.77-3.58,1.23-3.66,35.18-6.5,41.96-24.57,43.29-70.96,2.37-82.56,1.22-165.23,1.42-247.85.12-50.11.06-100.21-.04-150.32-.01-6.15-.82-12.29-1.25-18.3-64.79.35-122.68,39.86-140.85,100.75-12.39,41.54-17.87,85.14-26.38,127.82-1.06,5.3-1.75,10.67-2.62,16.01-1.38-.05-2.76-.1-4.14-.15-3.67-24.4-6.5-48.97-11.25-73.16-4.81-24.47-10.12-49.01-17.7-72.72-13.86-43.38-42.57-73.82-86.77-86.65-34.93-10.14-70.64-17.55-110.56-27.29,3.04,10.77,4.15,16.23,6.09,21.38,49.12,129.93,98.3,259.84,147.56,389.72,3.58,9.45,7.46,18.82,11.77,27.96,13.18,27.89,24.35,57.75,61.67,63.6-.63,1.33-1.26,2.66-1.9,3.99h-171.14c-.27-.98-.54-1.95-.81-2.93,3.85-1.03,7.64-2.61,11.55-3.01,43.76-4.5,59.12-24.56,46.14-66.99-12.9-42.16-29.72-83.13-44.95-124.57-6.16-16.76-12.68-33.4-20.51-53.98-1.61,31.29-1.77,58.23-4.64,84.89-5.72,53.1-22.28,102.01-62.28,139.93-34.88,33.06-77.23,44.51-123.9,37.72-48.76-7.1-83.93-62.45-76.32-114.9,6.87-47.38,35.15-80.58,70.99-107.85,31.75-24.15,66.04-44.93,98.68-67.95,12.1-8.53,24.26-17.94,33.34-29.36,4.63-5.83,6.52-20.62,2.58-25.02-7.75-8.63-17.57-1.32-24.34,6.08-8.63,9.42-16.29,19.76-25.25,28.85-5.48,5.56-12.03,10.82-19.1,13.89-14.67,6.35-25.57-2.38-23.94-18.4.48-4.69,1.94-9.39,3.61-13.84,26-69.23,52.08-138.43,78.27-207.58,1.77-4.67,4.54-8.97,6.67-13.11,2.93.87,4.65.94,4.82,1.49,5.93,19.04,18.89,20.07,35.78,15.77,27.25-6.93,55.12-11.48,82.31-18.6,53.53-14,86.11-50.1,99.17-102.53,9.74-39.11,15.39-79.24,22.84-118.92.84-4.45,1.49-8.93,2.23-13.4,1.4-.04,2.8-.08,4.2-.13,2.71,18.33,4.81,36.78,8.26,54.97,5.15,27.13,10.13,54.38,17.16,81.06,17.05,64.65,64.46,94.78,126.13,107.34,10.86,2.21,22.14,3.13,33.24,3.19,59.7.3,119.41.47,179.1-.1,13.03-.12,18.34,3.76,17.78,17.13-.76,18.21-.19,36.48-.19,54.72ZM1726.88,1672.48c-1.74.15-3.48.29-5.23.44-1.03,1.75-2.35,3.4-3.06,5.27-18.19,48.29-36.33,96.61-54.45,144.93-.93,2.49-2.67,5.11-2.44,7.52.52,5.4,2.05,10.71,3.17,16.06,4.87-1.09,10.53-.99,14.44-3.56,5.67-3.72,10.24-9.21,14.97-14.24,8.01-8.54,15.42-17.68,23.75-25.89,8.49-8.37,19.19-13.19,30.46-7,12.1,6.66,10.86,19.5,7.67,30-2.82,9.3-8.39,18.67-15.16,25.67-10.66,11.02-23,20.55-35.27,29.87-19.93,15.14-41.14,28.66-60.43,44.53-36.99,30.45-60.71,67.66-58.38,118.31,2.51,54.56,47.67,89.84,100.89,77.7,38.01-8.68,62.04-33.98,78.98-66.83,31.27-60.65,39.23-126.49,23.81-191.16-15.55-65.23-42.03-127.86-63.72-191.63Z"/>
  <path class="cls-2" d="M969.83,1611.68c11.71,0,23.78,1.83,35.08-.33,39.01-7.46,57.04,10.16,72.89,45.42,53.48,118.95,111.2,235.99,167.33,353.74,2.92,6.13,6.08,12.15,11.12,22.2,4.08-9.8,6.8-15.78,9.09-21.93,47.14-126.68,94.42-253.3,141.06-380.16,5.12-13.94,11.49-20.55,27.27-19.31,19.6,1.54,39.41.29,59.13.44,4.84.04,9.67.84,15.09,1.35-1.18,3.13-1.43,4.83-1.91,4.9-38.51,5.46-42.51,36.03-42.78,64.64-1.22,129.5-.6,259.02-.34,388.54.02,8.94,2.27,17.93,3.97,26.81,4.29,22.36,17.58,35.63,42.3,36.93-.64,1.46-1.28,2.93-1.92,4.39h-141.32c.97-2.33,1.26-4,1.76-4.07,33.68-4.47,41.44-29.67,41.59-56.88.81-143.84.38-287.68.38-432.19-56.59,152.3-113.28,304.89-169.97,457.48-2.17.06-4.34.12-6.51.18-68.67-147.22-137.34-294.43-206.02-441.65-.92.11-1.84.22-2.77.33,0,4.98,0,9.96,0,14.94-.02,91.68-1.47,183.39.63,275.02.88,38.47,6.76,77.32,15,114.98,7.68,35.07,27.8,62.31,67.85,66.97,1.44.17,2.77,1.28,2.76,5.31h-141.83c1.49-2.55,2.11-4.78,2.94-4.87,29.85-3.06,37.41-24.87,40.64-49.34,2.22-16.86,3.44-33.97,3.49-50.98.3-105.54.45-211.07-.11-316.61-.11-20.12-2.91-40.31-5.7-60.29-2.9-20.8-12.91-35.98-36.12-38.27-1.6-.16-3.02-2.12-4.52-3.24.14-1.49.28-2.98.41-4.47Z"/>
  <path class="cls-2" d="M1749.07,2762.11c4.17-10.3,6.83-16.44,9.16-22.7,46.97-126.17,94.17-252.26,140.5-378.67,5.43-14.83,12.09-21.08,28.36-20.08,24.11,1.49,48.37.38,72.57.38.25,1.29.51,2.58.76,3.87-1.79,1.37-3.48,3.77-5.38,3.95-23.55,2.23-32.24,18.59-36.1,38.65-2.3,11.96-3.69,24.29-3.71,36.46-.24,122.59-.28,245.17.16,367.76.05,13.14,2.82,26.4,5.47,39.37,3.65,17.83,13.99,29.57,33.07,31.85,1.54.18,3.14.71,4.48,1.49.74.43.99,1.71,2.52,4.61h-142.8c1.41-2.48,2.01-4.71,2.83-4.8,29.71-3.09,37.85-22.48,40.91-54.15,2.55-26.46,3.27-53.17,3.35-79.78.34-113,.15-226,.15-339v-15.61c-.97-.24-1.95-.48-2.92-.72-56.65,152.52-113.3,305.04-169.94,457.56-2.2.25-4.41.51-6.61.76-68.75-147.33-137.5-294.67-206.25-442-.89.25-1.78.5-2.66.75,0,28.1,0,56.2,0,84.3,0,72.49-.93,145,.48,217.46.56,29.08,3.95,58.57,10.19,86.97,9.12,41.58,26,78.73,77.56,83.87-.61,1.34-1.23,2.68-1.84,4.02h-141.49c1.03-2.35,1.33-4.01,1.85-4.08,34.52-4.79,41.32-30.7,41.68-58.48,1.63-123.6,2.24-247.21,2.9-370.82.07-12.73-1.38-25.57-3.22-38.19-3.73-25.59-11.35-48.47-45.65-49.08l2.64-5.06c4.11-.64,8.22-1.8,12.33-1.85,18.65-.21,37.37.8,55.95-.41,13.38-.87,19.7,4.49,25.22,16.17,58.46,123.72,117.45,247.19,176.33,370.7,4.91,10.31,10.16,20.45,17.16,34.49Z"/>
  <path class="cls-2" d="M3242.73,2135.71c48.35-5.88,46.49-43.98,46.95-75.52,1.78-122.53.83-245.1.54-367.66-.03-11.09-2.07-22.26-4.07-33.23-3.92-21.59-13.61-38.13-38.27-40.36-1.16-.1-2.16-1.89-4.78-4.32,4.54-1.2,7.65-2.59,10.83-2.79,52.02-3.37,104.1-6.03,156.08-9.95,133.71-10.11,221.27,63.07,251.54,176.69,24.45,91.78,19.23,182.01-29.54,265.68-39.69,68.1-101.11,104.58-179.82,106.42-45.54,1.06-91.24-4.73-136.87-7.17-18.07-.97-36.17-1.18-54.25-1.83-5.45-.2-10.88-.72-16.33-1.09l-2-4.86ZM3339.75,1875.15c0,78.89.24,157.78-.25,236.67-.08,12.42,4.04,19.04,16.13,20.89,17.86,2.72,35.63,6.35,53.58,8.14,75.66,7.54,137.47-18.69,173.29-86.12,61.55-115.85,60.77-235.1,2.58-352.4-23.35-47.07-63.28-76.97-115.74-87.7-36.75-7.52-72.99-2.5-109.26,4.93-15.04,3.08-20.92,9.1-20.73,25.34.87,76.75.39,153.51.4,230.27Z"/>
  <path class="cls-2" d="M3986.19,1885.92c2.01,49.83-.49,98.64-16.42,145.68-19.91,58.78-54.99,103.59-119.3,117.14-39.97,8.43-78.43,5.57-106.34-29.16-27.66-34.41-31.89-73.51-16.31-114.44,12.76-33.53,37.02-58.56,65.13-79.25,32.15-23.65,66.27-44.62,98.81-67.76,12.42-8.83,23.96-19.55,33.6-31.29,3.75-4.56,1.14-14.34,1.43-21.74-7.65,1.21-17.09.05-22.54,4.17-9.14,6.91-15.18,17.75-23.55,25.88-7.5,7.29-15.56,14.93-24.86,19.22-13.81,6.38-25.96-4.22-23.49-19.25.94-5.71,3.21-11.25,5.28-16.72,25.38-67.21,50.79-134.41,76.33-201.56,2.1-5.52,5.2-10.66,9.94-20.21,5.13,11.31,8.67,18.12,11.37,25.24,53.26,140.3,106.42,280.65,159.64,420.97,3.02,7.96,6.01,15.96,9.63,23.65,13.95,29.64,24.37,62.5,64.43,69.15-.65,1.29-1.29,2.59-1.94,3.88h-171.75c-.18-1.29-.35-2.58-.53-3.88,4.13-.76,8.24-1.86,12.41-2.23,41.65-3.75,57.98-24.47,45.53-64.86-14.56-47.21-33.13-93.19-50.08-139.65-5.26-14.41-10.94-28.67-16.43-42.99ZM3901.58,1672.19c-19.73,53.06-39.48,105.6-58.5,158.42-1.59,4.42,1.81,10.64,2.9,16.03,5.3-1.42,12.12-1.24,15.61-4.55,11.55-10.96,21.66-23.41,32.77-34.86,13.15-13.54,27.1-17.25,36.6-10.49,9.39,6.68,11.6,25.4,2.19,39.59-7.53,11.34-17.05,21.9-27.5,30.64-15.06,12.6-32.1,22.81-47.68,34.84-16.82,13-33.98,25.85-49.13,40.66-29.2,28.55-43.83,63.24-40.53,105,4.29,54.29,48.61,86.8,101.79,74.18,36.66-8.7,59.74-33.3,76.74-64.82,32.02-59.36,35.67-123.62,25.99-188.07-10.25-68.31-44.31-129.35-67.17-193.84-.26-.74-1.59-1.11-4.11-2.75Z"/>
  <path class="cls-2" d="M4620.33,2869.22h-171.5c-.22-1.22-.45-2.45-.67-3.67,4.48-.95,8.91-2.35,13.43-2.78,40.16-3.8,57.14-24.4,45.02-62.47-17.89-56.21-39.74-111.15-59.95-166.62-1.93-5.29-4.21-10.45-9.04-15.25,0,22.09,1.06,44.24-.21,66.26-3.06,53.17-16.43,103.18-51.74,144.73-35.68,41.99-82.22,57.82-136.02,50.42-41.1-5.65-73.35-46.71-76.37-90.96-3.37-49.33,18.97-86.77,54.05-117.27,23.62-20.53,50.12-37.78,75.68-56.02,19.5-13.92,39.69-26.88,59.21-40.76,5.55-3.94,10.56-9.13,14.54-14.66,5.6-7.77,12.2-17.43,2.71-25.61-9.28-8-18.13-1.05-24.96,6.1-6.97,7.31-12.91,15.6-19.69,23.11-4.97,5.51-9.73,12.55-16.1,15.11-8.01,3.22-20.29,6.35-25.69,2.49-5.07-3.62-7.01-17.61-4.43-24.98,16.69-47.71,34.95-94.87,52.77-142.18,8.82-23.41,17.73-46.78,26.75-70.11,1.82-4.7,4.31-9.13,8.52-17.9,4.86,9.71,8.24,15.24,10.5,21.18,53.1,139.8,106.07,279.65,159.07,419.5,1.13,2.99,2.06,6.07,3.41,8.95,16.82,35.7,24.52,78.47,70.68,93.38ZM4355.13,2402.12c-17.47,46.27-34.41,91-51.24,135.77-2.99,7.96-6.14,15.96-7.96,24.22-.89,4.03-.12,11.5,2.08,12.47,3.95,1.73,10.65,1.37,14.19-1.05,6.91-4.73,12.62-11.31,18.5-17.45,7.73-8.07,14.69-16.93,22.8-24.58,8.7-8.2,19.62-12.66,30.47-5.26,10.79,7.36,12.01,20,6.26,30.14-7.7,13.58-16.71,27.57-28.46,37.47-22.35,18.84-47.32,34.52-70.67,52.2-36.3,27.49-64.75,60.44-69.8,108.12-5.56,52.45,24.26,102.46,86.21,99.02,37.98-2.11,64.62-22.67,84.44-53.12,39.11-60.07,43.82-127.44,35.4-195.51-8.71-70.44-44.46-132.7-67.71-198.77-.29-.81-1.52-1.29-4.51-3.69Z"/>
  <path class="cls-2" d="M1204.69,2330.6c2.74,6.08,5.8,12.03,8.16,18.26,53.25,140.32,106.39,280.68,159.65,420.99,4.72,12.43,9.71,24.8,15.38,36.82,12.34,26.14,24.31,52.9,58.78,57.92-.57,1.35-1.13,2.7-1.7,4.05h-170.87c-.31-.85-.62-1.7-.93-2.56,3.73-1.09,7.39-2.79,11.19-3.19,44.22-4.73,59.34-24.3,46.67-66.66-11.57-38.67-26.97-76.2-40.92-114.14-7.48-20.34-15.43-40.5-24.66-64.64-1.61,31-1.83,57.83-4.64,84.38-5.56,52.55-21.81,100.98-60.87,138.94-34.94,33.95-77.61,45.81-124.95,39.17-48.74-6.84-84.26-62.14-76.78-114.57,6.76-47.39,34.9-80.69,70.75-107.99,31.73-24.16,66.02-44.95,98.67-67.96,12.1-8.53,24.29-17.89,33.43-29.28,4.71-5.88,6.94-20.49,3.07-25.08-7.54-8.95-17.5-1.86-24.31,5.54-9.02,9.79-17.09,20.47-26.37,29.99-5.08,5.21-11.27,10.02-17.89,12.9-14.75,6.43-25.91-1.97-24.34-17.87.57-5.73,2.41-11.47,4.45-16.9,25.49-67.74,51.09-135.44,76.78-203.11,1.98-5.22,4.83-10.11,7.28-15.15,1.66.05,3.31.11,4.97.16ZM1182.86,2399.69c-2.64,4.11-4.08,5.68-4.78,7.54-18.35,48.8-36.68,97.61-54.83,146.49-1.63,4.4-2.84,9.25-2.86,13.9-.03,8.38,4.78,12.3,12.44,8.1,6.38-3.5,12.22-8.45,17.36-13.68,9.32-9.49,17.54-20.07,26.98-29.43,8.86-8.78,21.65-15.29,31.12-6.04,6.3,6.16,6.61,19.81,6.93,30.2.17,5.54-4.26,12.23-8.43,16.71-9.75,10.47-19.88,20.85-31.16,29.58-23.16,17.91-47.99,33.72-70.67,52.19-37.12,30.25-60.9,67.5-58.67,118.16,2.44,55.36,47.94,90.45,102.1,77.68,37.35-8.81,61.05-33.83,77.57-66.18,33.99-66.53,38.64-137.58,21.09-208.4-11.95-48.23-33.32-94.13-50.55-141.04-4.14-11.28-8.56-22.46-13.65-35.79Z"/>
  <path class="cls-2" d="M2173.76,2869.49h-144.11c5.27-3.59,7.32-6.11,9.66-6.41,19.1-2.47,29.34-14.2,33.02-32,2.68-12.97,5.56-26.22,5.61-39.35.42-123.66.38-247.32.06-370.98-.03-12.13-2.14-24.39-4.56-36.33-3.9-19.24-13.58-33.5-35.31-35.5-1.77-.16-3.4-1.85-9.39-5.33,8.41-1.27,12.53-2.23,16.69-2.47,62.69-3.63,125.37-7.48,188.09-10.64,56-2.81,109.25,5.88,150.33,48.05,46.89,48.15,55.78,107.14,37.18,169.15-19.02,63.39-65.59,99.29-129.67,111.85-48.09,9.43-95.35,2.69-141.7-11.9-5.06-1.59-10.2-3-15.37-4.18-1.36-.31-2.98.57-6.45,1.34,0,10.8-.17,21.84.03,32.87.79,42.59,1.12,85.2,2.78,127.76,1.14,29.13,7.33,55.97,45.45,59.41-.77,1.55-1.55,3.1-2.32,4.65ZM2127.83,2494.19c0,41.02.31,82.03-.21,123.04-.14,10.88,3.15,17.49,14.15,19.06,33.02,4.7,66.08,13.28,99.08,13.07,67.09-.42,112.47-37.7,132.27-102.13,7.77-25.28,9.8-50.91,6.03-77.24-7.56-52.86-32.87-93.12-82.69-114.76-52.48-22.79-106.02-18.38-158.95-1.08-4.59,1.5-9.13,11.09-9.25,17.01-.8,41-.42,82.02-.42,123.04Z"/>
  <path class="cls-2" d="M2854.29,2781.56c0,28.91.27,55.4-.43,81.87-.07,2.59-6.15,7.21-9.46,7.22-121.01.3-242.02.17-363.04.01-1.75,0-3.49-1.17-6.13-2.11,1.91-2.42,2.7-4.42,3.69-4.52,30.05-3.11,36.99-25.35,40.2-49.66,2.23-16.86,3.4-33.98,3.45-50.99.3-105.02.3-210.05,0-315.07-.05-17.01-1.29-34.12-3.46-50.99-3.31-25.74-11.43-48.4-45.23-49.43.73-1.67,1.46-3.34,2.2-5,4.61-.61,9.23-1.75,13.84-1.75,116.22-.1,232.44.1,348.66-.33,12.76-.05,16.77,4.09,16.2,16.48-.84,18.31-.22,36.69-.22,55.04-1.35.25-2.7.49-4.04.74-4.19-7.36-6.66-17.12-12.92-21.58-14.08-10.04-29.14-21.63-45.4-25.09-37.77-8.03-76.35-13.22-114.86-16.5-30.17-2.58-60.73-.46-91.12-.69-8.7-.07-14.51,2.04-14.47,12.23.23,66.63.33,133.25.53,199.88,0,.96.81,1.92,1.54,3.54,1.78-.12,4.24.46,5.71-.5,32.03-20.84,65.49-18.59,99.54-6.28,15.51,5.61,30.67,12.25,46.35,17.29,38.55,12.4,52.4,7.97,78.33-21.69-2.05,8.38-2.66,17.47-6.4,25-13.14,26.47-48.33,40.9-83.39,31.2-22.73-6.29-43.66-18.89-65.81-27.58-15.51-6.08-31.48-13.3-47.69-14.65-19.07-1.59-28.75,10.74-28.77,29.91-.09,82.1.2,164.2-.27,246.3-.08,14.3,4.11,19.42,19.13,19.36,62.35-.28,124.9,1.55,185.41-16.75,17.04-5.16,34.62-12.52,48.36-23.4,11.88-9.41,18.66-25.25,29.96-41.51Z"/>
  <path class="cls-2" d="M612.06,2572.53c34.08-30.8,70.54-26.32,107.46-15.67,18.39,5.3,36.16,12.85,54.66,17.68,30.57,7.98,62.35,17.76,80.32-23.47,1.61,1.18,3.21,2.36,4.82,3.54-3.34,9.69-5.09,20.35-10.32,28.87-14.52,23.62-47.99,35.5-81.31,26.42-25.45-6.93-49.52-18.82-74.38-28.05-14.82-5.51-29.65-12.6-45.04-14.57-21.27-2.72-36.22,10.78-36.19,33.03.1,72.43.96,144.89,3.3,217.28.77,23.77,11.34,43.53,39.36,46.4,1.07.11,1.96,2,4.93,5.22h-143.36c-1.2-1.47-2.41-2.95-3.61-4.42,2.17-.39,4.33-.95,6.52-1.13,25.73-2.13,34.81-20.05,38.61-41.91,2.36-13.59,3.79-27.52,3.83-41.3.29-116.22.38-232.44-.08-348.67-.06-15.83-2.83-31.76-5.52-47.44-3.37-19.62-13.56-33.37-35.17-35.47-1.78-.17-3.41-1.86-4.78-5.67h143.85c-4.26,2.97-6.3,5.56-8.62,5.83-20.08,2.33-29.72,15.12-33.58,33.37-2.41,11.43-5.31,23.05-5.45,34.61-.59,50.58-.25,101.18-.25,155.51Z"/>
  <path class="cls-2" d="M2532.53,1617.33c-3.36.85-6.68,2.08-10.09,2.49-22.89,2.7-31.78,15.01-24.9,37.4,4.67,15.19,10.46,30.33,17.91,44.33,34.53,64.87,69.81,129.34,104.88,193.93.7,1.3,2.04,2.25,5.21,5.63,1.07-2.34,1.88-4.28,2.83-6.16,34.47-67.89,69.14-135.67,103.25-203.74,5.92-11.82,10.41-24.56,13.91-37.34,5.96-21.78-2.23-32.28-24.65-33.98-4.75-.36-9.45-1.51-14.17-2.3.18-1.39.36-2.77.54-4.16h110.91c-.35,2.05-.36,3.86-.7,3.93-28.24,5.34-42.35,26.52-54.69,49.26-43.7,80.51-87.25,161.1-130.52,241.84-3.11,5.81-5.05,13.08-4.98,19.64.58,50.06,1.58,100.12,3.01,150.17.25,8.91,2.68,17.84,4.83,26.59,4.87,19.86,19.96,28.26,40.13,30.61-.67,1.42-1.33,2.85-2,4.27h-143.59c3.55-3.26,4.83-5.48,6.29-5.61,24.94-2.24,36.32-19.22,37.39-40.79,2.85-57.4,3.4-114.92,4.31-172.41.09-5.4-3.18-11.19-5.9-16.25-42.12-78.34-84.2-156.7-126.78-234.78-13.14-24.09-26.33-48.86-59.84-52.05.9-1.5,1.79-3.01,2.69-4.51h144.35c.12,1.32.25,2.64.37,3.96Z"/>
  <path class="cls-2" d="M822.3,2342.49h148.47c-5.37,3.91-7.1,6.21-9.04,6.41-20.8,2.09-30.92,15.24-34.73,34.09-2.52,12.45-4.87,25.21-4.91,37.84-.36,123.59-.32,247.19-.03,370.78.03,11.61,1.78,23.37,4.07,34.79,3.97,19.71,13.48,34.74,35.96,36.87,1.74.16,3.34,1.87,4.62,5.69h-141.33c.89-2.06,1.37-4.51,2.05-4.57,31.91-2.58,39.64-27.59,41.2-55.52,2.35-41.97,3.07-84.05,3.33-126.1.48-76.71.49-153.44-.15-230.15-.18-21.19-2.76-42.43-5.32-63.51-2.69-22.11-13.05-38.12-37.52-40.74-1.18-.13-2.2-1.85-6.69-5.88Z"/>
  <path class="cls-2" d="M3869.55,2869.51h-140.1c.42-2.28.48-4.1.81-4.15,36.36-5.86,42.07-33.69,43.08-62.83,1.94-55.89,3.01-111.85,2.93-167.77-.1-74.05-1.47-148.1-2.75-222.14-.18-10.52-2.21-21.17-4.68-31.45-4.16-17.35-13.64-29.96-33.06-31.92-1.55-.16-3.15-.66-4.51-1.4-.77-.42-1.1-1.66-2.94-4.67h142.85c-2.16,2.79-2.93,4.79-3.92,4.91-31.83,3.68-37.71,27.75-40.28,52.95-2.37,23.27-3.28,46.77-3.36,70.17-.35,94.86-.31,189.71.03,284.57.07,19.14,1.03,38.4,3.45,57.37,3.31,25.93,10.1,50.27,45.65,50.89-1.07,1.83-2.15,3.65-3.22,5.48Z"/>
  <path class="cls-2" d="M4153.15,2871.05h-41.74c-56.78,0-56.97.12-88.88-47.45-25.51-38.03-50.35-76.5-75.78-114.58-21.03-31.5-47.51-57.28-81.03-75.5-5.11-2.78-10.13-6.03-14.49-9.86-11.68-10.24-12.89-22.65-1.27-33.06,9.75-8.75,21.44-15.62,32.96-22.07,32.93-18.45,67.3-34.54,99.05-54.79,34.02-21.69,59.75-51.5,67.83-92.9,5.2-26.65,4.9-52.87-13.76-79.35,19.01,0,35-2,50.02.97,6.15,1.21,12.77,12.48,14.76,20.3,12.46,49.13-1.85,91.4-36.22,127.34-26.22,27.42-58.75,45.71-93.22,60.43-24.44,10.44-49.54,19.33-74.32,28.95-9.42,3.66-19.41,6.39-27.99,11.47-6.66,3.94-11.53,10.89-17.2,16.5,6.16,5.15,11.56,12.12,18.64,15.06,15.66,6.51,32.25,10.73,48.31,16.34,34.37,12.01,61.32,33.35,81.16,64.06,18.49,28.62,37.04,57.24,56.82,84.96,24.81,34.78,50.56,69.07,97.4,77.04l-1.04,6.13Z"/>
  <path class="cls-2" d="M2140.32,3222.81c-4.64,16.22-15.52,21.78-29.74,22.3-14.07.51-23.92-5.9-26.37-20.18-1.79-10.41-2.02-21.12-2.6-31.71-.54-9.86-2.66-18.7-14.75-18.71-13.11-.01-9.21,10.62-9.58,17.78-.55,10.63-.59,21.34.1,31.96.34,5.3,2.79,10.47,4.54,16.61-15.13,0-31.66,0-48.21,0,10.76-13.51,9.89-126.19-3.4-138.55,29.89-3.07,57.62-4.14,85.05,1.76,16,3.44,27.68,17.28,25.08,32.49-2.12,12.38-10.57,23.67-17,37.07,11.08,6.13,16.14,19.68,15.33,37.2-.98,21.17,2.66,22.91,21.55,11.99ZM2057.14,3137.31c0,4.78-.81,9.75.22,14.31,1.14,5.06,4.1,13.88,6.02,13.81,5.65-.2,12.58-2.62,16.47-6.63,8.34-8.59,7.45-37.1-1.21-44.82-3.85-3.44-10.45-5.62-15.48-5.11-2.39.24-4.87,7.93-5.77,12.55-.99,5.12-.23,10.59-.25,15.91Z"/>
  <path class="cls-2" d="M3083.28,3100.5c7.96.42,15.93.85,21.23,1.13-13.21,14.17-26.55,27.99-39.11,42.47-1.92,2.21-1.67,8.28-.05,11.26,13.73,25.24,27.85,50.27,42.3,75.1,2.16,3.71,6.65,6.07,11.31,10.15h-52.7c1.7-25.17-18.97-41.38-27.28-62.68v63.31h-47.99c12.04-12.51,11.95-125.84-.96-139.15h48.65c-1.23,19.53-2.39,38.02-3.55,56.51,1.59.5,3.19,1,4.78,1.5,14.81-18.33,34.47-32.83,45.5-54.13-.72-1.83-1.43-3.65-2.14-5.48Z"/>
  <path class="cls-2" d="M1819.19,3189.71h51.19c-2.71,5.52-7.41,10.54-7.04,15.14,1.34,16.58-9.02,24.4-21.19,30.52-27.71,13.91-55.82,14.82-81.69-3.55-25.69-18.25-32.89-44.97-27.59-74.99,4.83-27.36,20.14-47.52,47.56-54.4,13.43-3.37,28.3-1.57,42.49-1.12,8.85.28,17.63,2.39,28.38,3.96v30.89c-.95.5-1.9,1.01-2.85,1.51-2.5-3.98-5.02-7.93-7.48-11.93-9.2-14.91-26.47-23.27-42.02-20.31-15.01,2.85-24.71,13.4-25.98,33.88-1.48,23.76-1.05,47.74.35,71.52.74,12.6,6.88,25.16,21.57,25.64,9.01.29,20.05-2.83,26.85-8.45,8.46-7,6.17-25.46-2.54-38.3Z"/>
  <path class="cls-2" d="M2623.07,3145.26v46.98c-1,.29-1.99.58-2.99.87-1.85-4.46-2.6-10.15-5.84-13.07-4.24-3.83-10.29-6.61-15.9-7.39-1.73-.24-6.29,7.46-6.58,11.72-.88,13.25-.74,26.62-.13,39.9.24,5.27,2.78,10.44,4.54,16.57h-48.04c10.16-13.3,9.61-125.56-2.38-139.43,30.55,0,59.53-.29,88.48.44,2.89.07,7.55,6.06,8.05,9.76,1.2,8.73.38,17.73-2.62,27.47-1.64-3.38-2.64-7.32-5.03-10.04-6.09-6.95-11.66-15.79-19.5-19.47-16.05-7.52-23.55-1.55-23.73,16.13-.09,8.52-.72,17.13.34,25.52.56,4.43,4.51,12.16,6.39,12,5.58-.47,11.63-3.21,16.06-6.82,3.1-2.53,3.86-7.94,5.67-12.06,1.07.31,2.14.62,3.21.93Z"/>
  <path class="cls-2" d="M2401.73,3241.3h-50.25c5.88-8.17,2.85-36.01-5.38-38.05-11.74-2.91-25.43-3.3-36.94-.05-9.04,2.56-9.34,26.86-1.57,37.72h-25.31c5.3-10.61,11.66-20.61,15.48-31.51,11.25-32.09,21.21-64.64,32.44-96.74,1.75-5.01,7.51-8.63,11.41-12.89,4.39,4.36,10.96,7.96,12.81,13.22,12.64,36.1,24.11,72.62,36.45,108.83,2.2,6.46,6.69,12.13,10.87,19.47ZM2329.62,3146.13c-1.25-.27-2.49-.54-3.74-.81-4.62,14.83-9.23,29.66-14.33,46.02h32.19c-5.12-16.38-9.62-30.8-14.12-45.21Z"/>
  <path class="cls-2" d="M3335.7,3240.61c4.7-7.67.89-35.97-6.77-37.57-11.89-2.48-25.51-2.99-36.91.51-9.17,2.81-9.46,26.97-1.61,37.41h-23.97c6.59-16.07,14.19-32.75,20.32-49.96,9.11-25.55,16.79-51.62,26.01-77.12,1.97-5.45,7.95-9.45,12.08-14.12,4.25,4.51,10.53,8.31,12.41,13.65,12.72,36.13,24.31,72.65,36.79,108.87,2.19,6.37,6.82,11.9,10.62,18.33h-48.97ZM3312.4,3146.87c-1.32.02-2.64.03-3.97.05-3.76,11.48-7.82,22.87-11.06,34.5-.81,2.91.79,9.35,1.74,9.43,7.7.73,15.54.6,23.24-.14.73-.07,1.94-6.5,1.1-9.45-3.29-11.58-7.31-22.94-11.06-34.39Z"/>
  <path class="cls-2" d="M2791.42,3101.92h51.09c-11.06,16.8-10.63,127.53,1.21,139.19h-51.39c9.64-14.74,9.45-123.97-.91-139.19Z"/>
  <path class="cls-1" d="M2078.64,3113.97"/>
  <path class="cls-1" d="M2063.16,3108.86"/>
</svg>