<?xml version="1.0" encoding="UTF-8"?>
<svg id="Warstwa_1" data-name="Warstwa 1" xmlns="http://www.w3.org/2000/svg" version="1.1" viewBox="0 0 1543 591">
  <defs>
    <style>
      .cls-1 {
        fill: #fff;
        stroke-width: 0px;
      }
    </style>
  </defs>
  <path class="cls-1" d="M1230.47,435.76c-1.5-6.96-2.74-13.99-4.55-20.87-6.43-24.55-22.76-38.8-47.12-44.19-8.58-1.9-15.48,2.45-17.44,11.6-1.76,8.25-2.85,16.8-2.9,25.23-.31,54.67-.25,109.35-.3,164.03,0,.64.17,1.28.35,2.57,9.65,0,19.26.22,28.86-.05,19-.53,37.94-1.7,56.14-7.9,3.14-1.07,6.36-2.2,9.13-3.95,3.76-2.38,7.76-4.88,10.47-8.27,2.67-3.33,3.86-7.84,6.3-13.14v35.15h-148.34c-.06-.34-.12-.68-.18-1.02.94-.34,1.85-.85,2.82-.98,7.41-.97,11.91-5.34,13.15-12.42,1.4-8,2.74-16.14,2.79-24.23.27-43.51.25-87.02.01-130.52-.04-7.77-1.21-15.59-2.57-23.27-1.39-7.81-5.98-12.88-14.53-13.24-.55-.02-1.08-.47-1.69-1.88,1.73-.25,3.45-.69,5.18-.71,15.16-.15,30.39.62,45.48-.5,26.55-1.97,51.09-18.93,54.31-49.28,1.04-9.75,1.57-19.55,2.94-29.46.17,1.62.25,3.25.52,4.84,2.21,12.94,3.98,25.98,6.84,38.77,2.64,11.82,10.15,20.45,20.8,26.22,11,5.96,22.63,9.54,35.3,9.41,13.67-.15,27.33-.05,41,0,1.84,0,3.69.31,5.77.5-.44,1.05-.5,1.55-.69,1.6-12.75,3.47-16.21,7.5-17.23,21.19-.66,8.8-1.11,17.63-1.13,26.45-.08,40.51-.06,81.02.16,121.52.03,6.62.95,13.27,1.92,19.84,1.27,8.58,5.59,14.53,15,15.34.59.05,1.15.46,1.64,1.65h-57.03c1.16-.91,1.56-1.46,2.07-1.58,11.17-2.84,14.81-6.64,15.98-18.45.97-9.77,1.59-19.61,1.59-29.42,0-42.5-.17-85.01-.59-127.51-.06-6.06-1.41-12.23-2.98-18.13-1.76-6.65-6.6-9.97-13.64-10.33-21.94-1.12-41.87,13.49-46.84,34.92-1.84,7.92-2.8,16.05-4.2,24.08-.39,2.22-.9,4.42-1.35,6.63-.41-.06-.82-.13-1.23-.19Z"/>
  <path class="cls-1" d="M565.42,270.39c-25.05-53.73-50.09-107.46-75.67-162.32-1.11,2.68-2,4.34-2.51,6.11-3.43,11.75-4.79,23.7-4.61,35.99.28,19.15-.43,38.3-.3,57.45.11,16.16.68,32.37,5.76,47.9,1.84,5.62,4.53,11.09,7.65,16.13,3.73,6.03,9.5,9.67,16.67,10.8,1.57.25,3.1.75,4.54,2.25h-55.85c-.1-.3-.2-.61-.3-.91,1.19-.36,2.35-.89,3.57-1.06,6.8-.98,10.94-5.15,12.26-11.51,1.48-7.14,2.81-14.45,2.89-21.7.34-32.33,1.44-64.73-.18-96.98-1.07-21.25-5.89-42.35-24.83-56.72-9.33-7.08-15.38-10.06-35.47-14.54,1.92-.37,3.85-.71,5.77-1.1,12.98-2.63,24.8-7.84,34.58-16.87,11.81-10.9,15.24-25.4,16.35-40.7.52-7.11.84-14.23,1.32-22.61,1.78,11.75,3.3,22.22,4.98,32.66.55,3.44,1.46,6.83,2.29,10.22,4.59,18.68,17.69,28.68,35.1,34.16,4.99,1.57,10.09,2.82,15.03,5.18-4.24.66-8.61.89-12.7,2.09-5.22,1.53-10.23,3.8-15.29,5.85-3.52,1.43-3.85,3.59-2.17,7.07,12.81,26.52,25.41,53.13,38.08,79.71,9.88,20.72,19.76,41.45,29.64,62.17.64,1.33,1.33,2.64,2.4,4.73.97-2.38,1.71-4.09,2.36-5.84,19.42-52.2,38.86-104.39,58.18-156.63,1.26-3.41,2.79-5.04,6.73-4.9,8.99.31,17.99.07,26.99.12,1.7,0,3.4.31,5.18,1.53-.63.37-1.22.95-1.9,1.06-9.07,1.53-12.89,4.75-14.69,13.77-1.2,6.01-2.09,12.2-2.12,18.31-.17,46.5-.17,93,0,139.5.02,6.11.95,12.29,2.11,18.32,1.43,7.44,5.47,12.8,13.69,13.79.98.12,1.9.66,2.68,1.99h-56.07c-.08-.37-.17-.75-.25-1.12,1.24-.37,2.46-.88,3.73-1.07,6.55-1.01,10.49-4.98,12-11.15,1.26-5.14,2.58-10.45,2.62-15.69.39-54.66.53-109.33.72-163.99,0-1.05-.29-2.1-1.38-3.31-22.5,60.62-45,121.24-67.5,181.86-.68,0-1.36,0-2.04,0Z"/>
  <path class="cls-1" d="M579.28,575.93c-2.36.25-3.72.52-5.08.52-8.66.04-17.36.41-25.98-.17-3.49-.24-7.55-1.82-10.1-4.15-3.99-3.66-7.19-8.29-10.25-12.83-8.74-12.98-17.47-25.98-25.78-39.24-9.17-14.64-20.69-26.83-34.97-36.55-3.39-2.31-6.54-5.19-9.19-8.32-2.59-3.05-3.36-6.98-1.15-10.71,2.39-4.03,6.54-3.99,10.24-2.94,4.77,1.35,9.34,3.44,13.9,5.43,8.62,3.77,17.35,6.77,26.99,5.75,12.23-1.29,21.46-7.53,28.63-17.21,18.82-25.41,15.76-77.41-34.8-86.91-18.79-3.53-37.42-2.09-55.62,5.13,0,1.78,0,3.44,0,5.09,0,48-.04,96,.05,143.99.02,8.99.09,18.03,1,26.96,1.18,11.52,1.95,23.86,18.79,24.62-.34.47-.67.93-1.01,1.4h-55.74c-.08-.32-.15-.65-.23-.97,1.25-.36,2.49-.85,3.77-1.05,6.54-1.01,10.65-4.92,11.99-11.14,1.43-6.64,2.84-13.44,2.88-20.18.24-46.83.2-93.66.04-140.49-.02-5.95-.91-11.97-2.09-17.82-1.58-7.81-5.72-13.48-14.62-13.84-.47-.02-.97-.24-1.37-.49-.22-.14-.28-.54-.74-1.5,1.55-.24,2.87-.56,4.22-.63,25.09-1.36,50.18-2.76,75.27-4.01,17.38-.87,34.31,1,49.76,9.82,19.94,11.39,30.37,33.82,26.75,56.98-3.47,22.22-21.29,40.09-44.67,44.94-14.07,2.92-27.41,1.17-40.19-5.48-4.26-2.22-8.65-4.46-13.26-5.63-2.33-.59-5.26,1.17-7.93,1.87.74,2.67.64,6.28,2.38,7.81,3.41,3.01,7.72,5.1,11.86,7.17,8.77,4.38,17.82,8.23,26.48,12.81,9.15,4.84,16.11,12.08,21.68,20.9,7.9,12.52,15.89,25.03,24.61,36.99,7.83,10.72,16.98,20.28,31.26,22.28.49.07.89.71,2.21,1.8Z"/>
  <path class="cls-1" d="M692.12,183.85c.65-33.74,9.01-61.83,31.03-84.73,36.05-37.48,95.84-35.13,128.75,5.21,21.52,26.37,28.44,56.99,25.35,90.32-2.08,22.39-9.44,42.76-23.35,60.62-37.46,48.11-108.7,45.06-142.02-6.11-13.09-20.11-19.72-42.92-19.76-65.32ZM859.04,177.55c-.53-5.33-.95-14.33-2.38-23.17-3.66-22.59-11.58-43.3-27.87-60.12-19.4-20.03-48.75-24.67-72.77-11.12-16.38,9.24-26.7,23.76-33.85,40.7-9.93,23.55-12.36,48.27-9.88,73.43,2.31,23.41,9.41,45.25,24.48,63.83,10.95,13.5,24.45,23.13,42.21,25.05,22.43,2.42,39.81-7.35,53.62-24.01,19.4-23.41,25.69-51.29,26.44-84.59Z"/>
  <path class="cls-1" d="M390.5,473.67c-.42,29.35-8.87,57.47-30.86,80.34-36.59,38.07-97.42,34.9-130.05-6.72-20.64-26.32-27.19-56.51-24.05-89.26,2.23-23.29,10.26-44.23,25.13-62.49,35.16-43.16,100.85-42.37,135.14,1.55,17.23,22.06,24.38,47.33,24.69,76.58ZM370.76,471.48c0-4.33.31-8.68-.05-12.97-2.09-24.82-8.7-48.03-24.61-67.87-19.57-24.39-51.75-31.29-77.88-16.25-18.56,10.68-29.3,27.7-36.19,47.35-7.73,22.03-9.66,44.75-7.08,67.9,2.65,23.82,10.09,45.78,25.74,64.32,10.63,12.59,23.77,21.41,40.55,23.26,23.07,2.53,40.71-7.73,54.65-24.99,18.97-23.49,25.04-51.28,24.88-80.74Z"/>
  <path class="cls-1" d="M1357.26,469.04c.64-30.57,10.24-60.84,36.32-83.91,36.75-32.51,92.22-27.84,123.3,10.19,21.53,26.35,28.5,56.96,25.43,90.3-2.07,22.38-9.39,42.78-23.31,60.64-37.51,48.17-108.57,45.17-142.06-5.92-13.58-20.71-19.43-43.56-19.68-71.3ZM1376.4,474.83c.36,4.32.61,12.01,1.72,19.56,3.6,24.39,12.1,46.6,29.77,64.54,19.72,20.03,47.01,24.48,70.25,11.05,15.87-9.17,26.38-23.19,33.78-39.63,10.55-23.47,13.52-48.12,11.18-73.62-1.93-21.03-7.2-40.95-19-58.67-13.06-19.6-30.76-31.97-55.07-31.51-23.41.44-40.45,12.74-52.94,31.76-14.58,22.18-19.2,47.16-19.69,76.52Z"/>
  <path class="cls-1" d="M916.64,458.06c.08-14.32,7.74-39.89,25.51-62.21,34.02-42.74,100.07-42.9,134.24-.28,18.9,23.58,26.53,50.66,25.71,80.48-.81,29.33-9.63,55.63-30.03,77.28-36.02,38.22-95.87,36.06-129.47-4.52-17.19-20.77-26.11-47.13-25.95-90.74ZM935.2,471.43c.95,9.25,1.38,18.59,2.96,27.74,3.92,22.76,12.47,43.5,29.24,59.99,15.36,15.09,33.6,22.08,55.1,16.85,17.37-4.22,30.03-15.39,39.8-29.88,14.7-21.82,20.43-46.3,20.66-72.3.25-26.97-4.54-52.73-19.58-75.65-12.92-19.69-30.7-32.01-55-31.62-23.42.37-40.51,12.63-53,31.64-14.57,22.16-19.39,47.08-20.18,73.23Z"/>
  <path class="cls-1" d="M23.59,368.2c1.63-.2,2.99-.46,4.37-.53,24.76-1.34,49.52-2.65,74.28-3.97,14.11-.75,27.99.29,41.09,6.09,23.39,10.34,34.92,29.02,36.58,53.95,2.66,40.13-26.66,69.71-67.7,70.74-15.86.4-31.1-2.57-46.04-7.54-1.54-.51-3.09-.98-5.18-1.64,0,9.93-.22,19.39.05,28.83.41,14.13.85,28.28,1.88,42.38.71,9.68,5.06,16.9,16.01,17.76.43.03.84.39.84,1.62H24c-.06-.36-.13-.72-.19-1.08,1.11-.33,2.2-.8,3.34-.96,7-.99,11.28-5.24,12.51-11.85,1.48-7.98,2.85-16.13,2.9-24.21.28-43.83.25-87.66.02-131.5-.04-7.6-1.2-15.26-2.55-22.76-1.4-7.8-5.96-12.9-14.51-13.25-.45-.02-.9-.34-1.33-.57-.1-.05-.12-.28-.59-1.51ZM60.98,427.98c0,16.67.12,33.34-.09,50-.04,3.48,1.01,5.39,4.31,5.99,11.1,2.03,22.13,4.82,33.32,5.81,17.25,1.52,33.35-2.39,45.63-15.6,15.78-16.98,20.39-37.46,16.24-59.82-3.71-20.01-14.69-34.97-34.05-42.37-20.98-8.03-42.15-6.23-63.03.89-1.16.4-2.21,3.01-2.22,4.61-.16,16.83-.1,33.67-.1,50.5Z"/>
  <path class="cls-1" d="M962.93,77.1h148.6v29.03c-1.14-1.48-1.72-1.9-1.81-2.41-1.32-7.44-6.72-11.22-12.83-14.26-11.05-5.49-23.03-8.08-35.12-8.82-20.25-1.24-40.58-1.37-61.31-1.98v88.07c.12.02.55.22.72.08,12.04-9.55,25.39-9.71,39.23-5.23,8.52,2.76,16.8,6.33,25.39,8.84,3.86,1.13,8.27,1.03,12.34.6,5.25-.55,9.38-3.22,11.05-8.71.26-.84.91-1.56,2.52-2.15-.11,1.61.03,3.29-.36,4.83-3.12,12.4-15.99,19.76-30.69,18.03-10.54-1.24-19.58-5.92-28.64-11-5.14-2.88-10.71-5.38-16.4-6.72-3.15-.74-7.12.84-10.39,2.18-3.75,1.55-5.34,4.59-5.31,9.12.21,33.49.12,66.99.12,100.49v5.93c10.45,0,20.4.25,30.34-.05,18.65-.57,37.3-1.67,55.1-7.95,4.96-1.75,9.72-4.31,14.24-7.05,6.29-3.81,9.45-9.94,10.16-17.51.5.16,1.01.33,1.51.49v33.97h-148.4c-.08-.37-.16-.74-.24-1.11,1.07-.36,2.12-.89,3.22-1.05,7.25-1.02,11.47-5.59,12.67-12.32,1.48-8.32,2.77-16.82,2.78-25.24.02-47.15-.33-94.31-.7-141.46-.03-3.61-.96-7.24-1.71-10.81-1.66-7.96-5.86-13.32-14.66-13.77-.54-.03-1.05-.51-1.57-.79.05-.43.11-.86.16-1.3Z"/>
  <path class="cls-1" d="M804.81,576.02h-55.73c-.08-.33-.16-.66-.23-.99.89-.36,1.76-.94,2.69-1.05,7.65-.95,12.11-5.53,13.4-12.78,1.34-7.51,2.63-15.15,2.68-22.74.25-44.16.25-88.32.01-132.47-.04-7.59-1.26-15.25-2.63-22.74-1.39-7.61-5.92-12.52-14.22-12.96-.66-.04-1.3-.6-1.77-1.96h148.68v27.96c-.87-.4-1.58-.53-1.62-.78-1.64-8.83-8.22-12.93-15.6-16.11-13.02-5.61-26.85-7.91-40.84-8.34-17.6-.54-35.23-.13-53.17-.13v89.07c1.81-1.53,3.4-3.11,5.21-4.37,11.04-7.68,22.94-6.8,34.91-2.99,8.54,2.72,16.85,6.13,25.38,8.9,2.78.9,5.92,1.03,8.88.98,7.83-.11,13.73-3.26,15.55-12.11.48.28.96.56,1.43.84-.1,1.78.11,3.64-.34,5.33-3.23,12.03-16.21,19.27-30.59,17.51-9.65-1.18-18.16-5.07-26.41-9.9-4.29-2.52-8.6-5.18-13.22-6.92-10.69-4.04-18.44.59-20.51,11.76-.27,1.47-.58,2.97-.56,4.45.27,25.49.52,50.97.97,76.46.06,3.61,1.05,7.23,1.81,10.8,1.58,7.39,5.68,12.26,13.58,13.25.87.11,1.69.6,2.54.91-.08.38-.17.76-.25,1.14Z"/>
  <path class="cls-1" d="M635.43,574.87c1-.33,1.97-.82,3-.95,7.71-1.02,11.68-5.96,13.23-13.03,1.03-4.69,2-9.52,2.03-14.29.37-57.31.57-114.62.78-171.93,0-1.29-.25-2.59-.43-4.36-18.2.24-35.75,2.01-51.65,11.32-5.46,3.19-9.54,7.65-9.88,14.74-.44-.15-.87-.3-1.31-.45v-28.03c1.7-.08,3.5-.22,5.3-.23,44.64-.01,89.29.05,133.93-.1,4.62-.02,6.63.94,6.26,6-.44,5.97-.07,11.99-.13,17.99-.02,1.5-.33,3-.9,4.5-6.06-17.73-21.88-20.04-36.59-23.37-8.31-1.88-17.03-1.97-25.86-2.9-.26,2.33-.53,3.61-.53,4.89.09,57.98.19,115.96.36,173.94.01,3.48.52,6.97,1.03,10.42,1.4,9.5,4.48,12.76,13.87,15.06.69.17,1.31.6,1.81,1.82h-54.09c-.08-.34-.16-.68-.24-1.02Z"/>
  <path class="cls-1" d="M896.1,77.19h56.07c.06.31.13.63.19.94-.62.37-1.23,1.03-1.87,1.06-8.33.38-13.11,5.33-14.25,12.9-1.58,10.5-2.73,21.16-2.8,31.76-.31,48.16-.27,96.33-.15,144.5.04,17.09-4.11,32.63-15.31,45.83-8.04,9.48-18.25,14.86-30.85,15.06-2.36.04-4.73-.66-7.1-1.01l-.04-1.27c.96-.29,1.92-.82,2.87-.82,10.79-.02,18.2-5.49,23.38-14.48,5.8-10.06,8.34-21.19,8.4-32.54.26-56,.15-112-.01-167.99-.02-5.78-.9-11.63-2.01-17.33-1.42-7.35-4.76-14.11-15.03-14.61-.55-.03-1.07-.49-1.6-.75.04-.41.08-.83.12-1.24Z"/>
</svg>