<?xml version="1.0" encoding="UTF-8"?>
<svg id="Warstwa_1" data-name="Warstwa 1" xmlns="http://www.w3.org/2000/svg" version="1.1" viewBox="0 0 5000 5000">
  <defs>
    <style>
      .cls-1 {
        fill: #fff;
        stroke-width: 0px;
      }
    </style>
  </defs>
  <path class="cls-1" d="M3946.59,2826.43c-5.93-26.09-9.81-52.85-18.17-78.14-24.06-72.8-75.81-115.64-150.25-130.73-28.15-5.7-49.57,8.52-56.06,38.18-5.59,25.57-9.17,52.11-9.3,78.25-.94,178.74-.73,357.49-.86,536.24,0,1.05.39,2.09.67,3.52,1.18.59,2.55,1.86,3.93,1.87,74.81.89,149.82,3.03,223.51-12.77,26.04-5.58,51.88-14.05,76.33-24.61,28.21-12.19,48.6-33.14,51.31-67.28,1.33.54,2.67,1.08,4,1.63v108.84h-478.65c-.26-.9-.53-1.8-.79-2.69,2.82-1.06,5.57-2.71,8.48-3.08,23.81-2.97,38.57-16.71,43.14-39.53,4.42-22.05,8.77-44.59,8.88-66.94.78-148.59.78-297.19.03-445.78-.11-22.36-4.19-44.95-8.77-66.96-4.98-23.93-19.93-38.82-45.9-39.91-1.83-.08-3.6-1.37-5.54-5.71,5.21-.46,10.41-1.28,15.63-1.34,50.6-.52,101.57,2.82,151.72-2.18,88.1-8.78,160.75-63.67,171.6-157.85,3.62-31.46,5.2-63.15,7.11-87.09,6.19,34.61,13.19,76.63,21.31,118.44,9.77,50.33,39.72,85.01,86,105.76,31.65,14.19,64.47,23.49,99.75,23,44.14-.61,88.3-.17,132.44-.11,5.6,0,11.19.49,17.4,3.9-1.95,1.08-3.79,2.8-5.86,3.13-29,4.68-41.47,15.25-47.47,44.49-3.87,18.87-6.73,38.34-6.8,57.55-.54,151.82-.53,303.65,0,455.47.06,18.68,3.07,37.54,6.58,55.96,4.85,25.49,18.68,43.19,46.69,45.84,2.37.22,4.65,1.46,6.68,4.99h-180.46c-.17-.77-.34-1.55-.51-2.32,2.59-.95,5.12-2.46,7.78-2.77,26.3-3.04,41.12-19.33,44.71-43.8,4.59-31.29,8.35-63.04,8.41-94.6.29-143.2-.67-286.4-1.72-429.6-.11-14.91-2.63-30.03-5.92-44.64-8.21-36.43-24.69-48.47-61.68-46.87-67.3,2.9-124.01,49.16-138.83,114.59-5.69,25.11-8.88,50.78-13.3,76.18-1.17,6.7-2.67,13.35-4.02,20.02-1.08-.19-2.16-.37-3.24-.56Z"/>
  <path class="cls-1" d="M1328.66,1685.6c21.43-6.89,43.83-12.77,65.21-21.21,76.72-30.28,110.18-90.22,114.21-169.74,1.14-22.52,2.62-45.02,3.72-63.73,5.83,34.96,12.12,73.45,18.69,111.9,11.87,69.44,55.19,109.47,120.76,128.47,14.81,4.29,29.72,8.27,44.29,14.83-6.85,1.03-13.74,1.91-20.55,3.14-11.1,2-22.39,3.4-33.18,6.51-49.34,14.25-51.71,19.49-30.44,64.17,68.84,144.57,137.72,289.13,206.59,433.69,2.3,4.82,4.75,9.56,8.12,16.31,2.9-6.61,5.32-11.48,7.2-16.55,62.93-169.13,125.97-338.22,188.4-507.54,4.65-12.61,10.25-17.59,24.01-17.03,28.49,1.15,57.07.29,85.61.4,5,.02,10,.68,15.43,1.08-1.04,2.78-1.21,4.38-1.75,4.51-39.21,9.58-50.6,22.14-55.11,63.67-2.26,20.83-3.76,41.86-3.79,62.79-.18,143.77-.12,287.55.54,431.32.09,18.69,3.07,37.52,6.38,55.99,4.7,26.22,18.57,44.39,47.37,47.03,2.24.21,4.37,1.63,6.14,5.17h-180.23c-.29-.96-.58-1.92-.86-2.88,3.86-1.04,7.66-2.41,11.59-3.07,20.11-3.4,33.53-15,38.48-34.42,4.36-17.08,8.91-34.74,9.05-52.18,1.41-180.91,1.95-361.83,2.68-542.75,0-1.36-.6-2.71-2.08-8.92-74.94,201.88-148.35,399.6-221.75,597.32-1.81.14-3.63.29-5.44.43-81.27-174.28-162.55-348.56-243.82-522.84-2.03-.09-4.07-.19-6.1-.28-5.89,28.41-14.01,56.59-17.05,85.31-3.04,28.74-1.2,58.02-1.15,87.06.12,69.94-.69,139.91,1.1,209.81,1.06,41.46,8.41,82.4,25.81,120.7,15.4,33.91,39.03,57.74,78.27,61.59,1.88.18,3.67,1.35,5.21,4.77h-180.64c1.03-2.14,1.28-3.68,1.93-3.87,41.94-12.43,53.73-25.75,55.86-71.89,2.55-55.35,3.08-110.82,3.65-166.24.54-52.76-.72-105.55.16-158.31.77-45.93-7.55-90.83-24.08-132.47-25.98-65.44-77.01-104.56-146.78-117.97-7.9-1.52-15.82-2.97-21.67-4.07Z"/>
  <path class="cls-1" d="M1838.48,3280.35c-2.5.81-4.68,2.12-6.87,2.13-32.31.12-64.66.95-96.9-.53-8.59-.4-18.66-6.27-24.87-12.69-12.26-12.68-23.21-26.89-33.09-41.55-28.57-42.37-57.1-84.8-84.21-128.11-29.33-46.86-66.38-85.68-111.88-116.95-11.35-7.8-23.31-16.91-30.2-28.31-5.2-8.59-6.26-23.03-2.87-32.65,4.61-13.1,19.43-12.8,30.95-9.46,15.38,4.47,30.23,11,44.96,17.46,28.86,12.66,58.2,23.16,90.39,18.63,60.13-8.46,106.89-56.61,120.34-123.17,23.1-114.23-47.46-208.03-163.79-217.75-62.23-5.2-119.26,2.21-159.11,20.99,0,4.92,0,10.27,0,15.62,0,156.7-.34,313.41.3,470.11.14,34.9,2.61,69.9,6.09,104.65,3.07,30.79,16.02,54.93,51.71,57.59,1.09.08,2.06,1.78,5.22,4.69h-181.77c-.54-.96-1.08-1.92-1.62-2.88,1.4-.58,2.75-1.33,4.19-1.73,39.18-10.68,50.34-23.07,54.01-64.72,2.59-29.45,4.06-59.09,4.11-88.64.21-132.47,0-264.94-.77-397.4-.12-20.31-2.9-40.77-6.29-60.86-4.61-27.34-17.96-47.22-49.1-48.45-1.62-.06-3.18-1.74-7.74-4.41,6.04-1.3,8.82-2.29,11.63-2.44,87.02-4.6,174-9.98,261.07-13.33,58-2.23,114.25,6.98,162.43,42.4,59.26,43.56,80.39,104.62,68.71,174.99-12.2,73.47-59.73,118.46-130.07,139.14-48.43,14.24-95.67,9.58-140.92-13.78-14.28-7.37-28.89-14.94-44.25-19-7.56-2-20.11,1.09-25.19,6.64-8.24,9-1.9,20.5,6.76,26.39,14.55,9.89,30.49,17.78,46.06,26.1,34.52,18.43,70.54,34.52,103.23,55.75,17.29,11.23,30.49,30.11,42.73,47.52,29.68,42.2,56.41,86.52,86.85,128.15,24.14,33.02,54.11,60.18,97.53,66.13.62.08,1.04,1.64,2.27,3.74Z"/>
  <path class="cls-1" d="M2932.67,2907.95c.55-53.99,25.19-136.54,82.8-208.54,109.76-137.18,322.32-137.47,432.25-.15,69.53,86.85,91.57,186.58,80.43,295.22-8.3,80.95-37.36,153.12-93.85,212.84-118.78,125.57-314.49,116.62-422.1-19.06-52.9-66.7-80.18-149.98-79.54-280.29ZM2991.23,2943.62c3.21,30.44,4.68,61.18,9.96,91.25,12.9,73.51,40.82,140.38,95.22,193.49,42.32,41.32,92.4,64.66,152.94,58.1,68.3-7.4,116.69-46.68,153.82-101.18,48.22-70.77,66.43-150.69,66.98-235.24.57-86.55-14.95-169.29-63.22-242.92-40.61-61.94-96.16-101.79-172.67-102.7-78.63-.94-135.78,39.08-177.61,102.55-47.17,71.56-62.69,152.16-65.42,236.65Z"/>
  <path class="cls-1" d="M1231.23,2963.01c-1.09,84.44-29.65,175.66-101.94,250.02-108.04,111.14-288.99,110.38-396.07-1.8-81.72-85.61-107.71-189.87-98.83-304.66,5.76-74.5,30.27-142.59,77.14-201.76,121.6-153.48,349.52-142.78,456.66,21.21,43.71,66.91,62.94,140.6,63.04,236.99ZM1170.97,2940.97c-.62-11.61-.92-27.25-2.36-42.78-7.3-78.49-27.6-152.7-78.9-214.58-53.85-64.94-122.39-94.04-206.52-72.79-65.84,16.63-109.94,61.71-140.5,119.97-51,97.24-59.41,200.99-40.69,307.52,12.62,71.86,40.68,137.19,93.62,189.13,49.99,49.04,109.33,72.21,179.52,54.66,56.02-14,96.75-50.19,128.43-96.94,49.1-72.45,66.15-154.19,67.4-244.18Z"/>
  <path class="cls-1" d="M2207.63,2005.05c1.02-88.5,23.72-169.73,79.1-240.46,112.07-143.12,322.43-145.64,437.08-4.54,67.04,82.5,89.19,178.62,81.2,282.58-5.86,76.18-31.11,145.35-78.8,206.17-109.87,140.1-322.08,142.57-434.26,4.48-56.03-68.97-85.2-154.74-84.32-248.23ZM2267.9,2013.96c1.31,14.79,2.27,40.16,6,65.12,11.7,78.24,39.29,149.41,95.75,207.15,57.41,58.71,135.79,76.86,206.72,46.74,53.32-22.65,90.15-63.26,117.72-112.86,44.04-79.24,56.57-165.21,50.46-254.21-4.88-71.09-22.09-139.12-62.33-199.3-42.25-63.17-99.03-103.46-177.7-102.44-76.52,1-131.87,40.98-172.65,102.83-47.23,71.63-62.02,152.42-63.97,246.98Z"/>
  <path class="cls-1" d="M4356.28,2965.21c.99-107.99,23.79-189.69,79.55-260.88,111.41-142.25,321.54-144.9,436.1-4.73,67.67,82.81,89.9,179.39,81.74,283.96-5.95,76.21-31.37,145.3-79.1,206.05-109.83,139.8-322.34,141.76-434.3,3.45-55.65-68.75-83.88-151.66-83.99-227.85ZM4416.63,2954.18c1.3,14.71,2.32,39.53,5.88,63.97,11.51,78.88,39.23,150.55,96.17,208.63,57.06,58.21,134.44,76.34,205.31,46.89,54.08-22.47,91.2-63.52,119.03-113.66,43.72-78.76,56.29-164.21,50.39-252.64-4.78-71.64-22.01-140.22-62.67-200.84-42.35-63.13-99.19-103.32-177.87-102.1-76.5,1.18-131.74,41.25-172.46,103.17-47.15,71.7-61.82,152.5-63.78,246.58Z"/>
  <path class="cls-1" d="M166.92,2987.97c0,33-.73,64.65.17,96.26,1.28,45.11,2.63,90.28,6.11,135.26,2.41,31.21,16.65,54.53,52.15,56.96.99.07,1.85,1.96,4.32,4.77H48.28c-.19-.88-.39-1.75-.58-2.63,2.03-.92,4.01-2.5,6.1-2.67,29.85-2.41,43.51-21.79,47.99-48.34,3.84-22.72,6.63-45.93,6.73-68.93.6-141.57.68-283.15-.04-424.72-.12-24.57-3.41-49.38-7.86-73.6-4.69-25.53-19.3-42.94-47.85-43.9-1.64-.05-3.22-1.66-8.06-4.32,6.12-1.39,8.82-2.43,11.58-2.58,86.99-4.6,173.94-9.94,260.98-13.35,59.44-2.32,116.15,8.93,163.28,48.31,58.87,49.2,77.84,114.74,69.19,188.34-12.83,109.2-99.74,179.72-212.56,184.65-53.95,2.36-105.85-8.12-156.59-25.6-3.93-1.35-8-2.31-13.67-3.93ZM166.92,2804.45c0,53.27.46,106.56-.34,159.82-.19,12.69,4.02,18.94,15.86,21.08,34.8,6.27,69.36,15.07,104.44,18.26,56.25,5.12,108.49-7.31,149.15-49.91,44.65-46.77,61.87-104.07,56.8-167.37-6.08-75.84-39.99-135-113.41-164.08-68.09-26.97-137.07-20.47-205.02,2.61-3.75,1.27-7.11,9.77-7.16,14.93-.51,54.88-.32,109.78-.32,164.66Z"/>
  <path class="cls-1" d="M3077.82,1670.32h483.89v94.03c-25.24-66.38-82.59-73.05-134.69-79.27-73.95-8.82-148.98-8.58-224.92-12.27v287.85c.56.11,1.96.83,2.45.43,38.61-31.37,81.73-32.28,126.55-17.84,27.55,8.87,54.37,20.01,81.94,28.82,10,3.19,21.25,3.78,31.86,3.43,24.67-.82,42.04-12.86,50.53-37.56,2.59,18.14-3.28,32.97-14.65,45.21-29.16,31.38-66.48,34.22-104.3,23.88-24.46-6.68-47-20.35-70.44-30.81-17.03-7.6-33.58-17.21-51.4-21.79-10.29-2.64-23.48.99-33.94,5.28-13.37,5.48-20.41,15.6-20.26,32.64.94,108.2.48,216.41.48,324.61,0,5.37,0,10.74,0,15.51,1.42,1.33,2.19,2.68,2.98,2.69,80.73,1.38,161.68,3.52,240.83-15.91,25.22-6.19,49.74-16.84,73.13-28.39,23.28-11.49,36.7-32.25,38.87-59.75,1.39.44,2.79.89,4.18,1.33v108.45h-483.57c5.65-3.38,7.13-5,8.73-5.11,33.36-2.44,46.24-25,49.99-53.78,3.75-28.74,6.2-57.85,6.35-86.81.66-126.51.74-253.02-.06-379.52-.19-30.54-3.03-61.28-7.46-91.52-3.98-27.22-18.36-47.04-49.4-48.21-1.18-.04-2.31-1.61-7.68-5.62Z"/>
  <path class="cls-1" d="M2391.15,2610.88h479.3v88.64c-1.86-.23-3.62-.19-3.69-.5-6.21-29.16-27.79-43.18-52.82-53.8-43.23-18.33-89.14-25.18-135.32-27.01-55.33-2.19-110.82-.52-167.53-.52v290.66c6.24-5.39,11.92-11.34,18.56-15.86,34.79-23.71,72.31-21.07,109.92-9.28,27.61,8.66,54.47,19.71,81.92,28.93,8.02,2.69,16.91,3.78,25.41,3.82,26.75.11,48.62-8.05,55.34-38.97,1.34.66,2.68,1.31,4.03,1.97-.47,5.68-.06,11.6-1.56,16.99-10.59,38.15-50.03,60.47-96.02,55.83-32.47-3.27-60.85-16.43-88.35-32.8-13.35-7.94-26.91-16.08-41.35-21.53-35.07-13.25-60.54,1.88-67.54,38.62-.3,1.58-.99,3.16-.96,4.73,1.35,90.37,1.69,180.77,4.71,271.08,1.15,34.33,14.3,63.59,58.06,64.92l-2.45,3.93h-180.74c1.15-2.28,1.43-3.81,2.09-4,41.3-11.9,51.48-23.94,55.81-68.66,1.97-20.33,3.37-40.81,3.41-61.22.28-136.21.26-272.42-.05-408.63-.04-18.8-1.1-37.74-3.64-56.35-4.65-34.03-13.14-65.87-58.72-66.22.73-1.6,1.45-3.19,2.18-4.79Z"/>
  <path class="cls-1" d="M2085.71,2616.57c-55-.03-104.9,6.02-151.94,27.03-30.88,13.79-41.1,25.76-52.73,55.81v-88.84h466.81v90.93c-25.9-66.33-84.91-70.1-139.25-80.77-20.8-4.09-42.52-3.51-64.4-5.1-.65,6.09-1.4,9.76-1.39,13.42.46,187.89.98,375.77,1.51,563.66,0,3.23.15,6.46.3,9.69,2.37,49.09,10.34,60.31,54.19,78.27h-175.39c2.07-2.3,2.94-4.14,3.92-4.21,34.13-2.32,48.03-22.96,52.18-59.05,3.87-33.6,5.73-67.6,5.86-101.43.6-160.97.31-321.95.33-482.92,0-5.16,0-10.31,0-16.48Z"/>
  <path class="cls-1" d="M2814.56,2476.3c2.36-.5,4.74-1.48,7.09-1.43,37.89.76,62.56-19.3,79.58-50.88,16.95-31.43,24.79-65.77,24.92-100.89.67-182.01.28-364.02-.03-546.03-.02-13.4-1.58-26.91-3.66-40.17-5.16-32.86-15.6-61.54-58.08-61.42.62-1.34,1.23-2.68,1.85-4.01h179.03c.29.6.57,1.2.86,1.8-2.78,1.09-5.49,2.88-8.35,3.18-21.17,2.22-35.21,13.72-40.51,33.82-4.49,17.03-8.96,34.7-9.11,52.13-1.53,174.99-2.5,349.98-2.85,524.97-.1,49.31-10.57,95.01-39.41,135.45-23.83,33.41-55.14,55.73-96.97,60.23-11.35,1.22-22.94.18-34.42.18.02-2.31.04-4.62.06-6.94Z"/>
</svg>