<?xml version="1.0" encoding="UTF-8"?>
<svg id="Warstwa_1" data-name="Warstwa 1" xmlns="http://www.w3.org/2000/svg" version="1.1" viewBox="0 0 5000 5000">
  <defs>
    <style>
      .cls-1 {
        fill: #fff;
        stroke-width: 0px;
      }
    </style>
  </defs>
  <path class="cls-1" d="M3161.37,3986.52h-562.62c.23-.76.26-1.91.67-2.06,16.88-6.37,31.52-16.67,46.87-25.86,38.58-23.08,62.32-57.98,80.2-97.79,4.94-11,8.63-22.56,13.64-33.52,14.84-32.42,20.59-66.42,20.48-101.94-.35-112.08-.16-224.16-.13-336.24.18-649.55.37-1299.11.55-1948.66.02-88.31.03-176.62-.05-264.94,0-8.56-.68-17.11-1.04-25.67-.82-.11-1.64-.21-2.46-.32-1.96,4.92-3.99,9.81-5.88,14.75-93.23,243.37-186.46,486.73-279.66,730.11-48.83,127.53-97.55,255.1-146.41,382.62-45.74,119.36-91.62,238.67-137.4,358.01-5.67,14.77-10.8,29.76-16.7,44.43-8.32,20.66-18.61,25.71-40.13,20.51-1.62-.39-3.23-.94-4.88-1.05-13.57-.91-21.98-8.6-27.62-20.38-7.74-16.15-15.86-32.11-23.63-48.25-37.02-76.93-73.98-153.89-110.97-230.84-50.7-105.47-101.31-210.97-152.11-316.39-146.06-303.09-292.19-606.15-438.31-909.22-2.23-4.62-4.68-9.14-7.03-13.71-1.05.25-2.1.5-3.15.75,0,8.53,0,17.06,0,25.59.04,230.41-.03,460.82.15,691.23.19,247.49.76,494.97.82,742.46.01,54.08,16.83,102.45,47.82,145.88,14.3,20.04,33.24,36.12,54.01,49.56,15.75,10.2,32.32,18.92,50.29,24.71,3.14,1.01,6.14,2.48,9.14,3.71,0,.69.11,1.15-.03,1.51-.11.29-.52.66-.8.66-117.06.18-234.12.33-351.18.46-2.36,0-4.72-.36-9.95-.78,13.17-10.48,23.8-20.22,35.66-28.12,26.91-17.93,45.03-43.19,59.62-70.99,13.76-26.23,22.25-54.69,29.91-83.28,1.28-4.77,1.86-9.84,2-14.8.61-22.07,1.1-44.14,1.36-66.22,5.51-468.7,1.31-937.43,2.25-1406.14.05-25.41.53-50.85-.47-76.23-2.47-62.92-21.27-120.09-61.91-169.17-16.69-20.15-39.64-29.79-63.49-37.85-5.79-1.96-11.78-3.33-17.62-6.44,3.04-.29,6.08-.83,9.12-.84,97.08-.12,194.16-.15,291.24-.32,12.39-.02,20.92,4.96,27.67,15.64,27.7,43.81,46.87,91.87,69.39,138.23,59.15,121.74,117.53,243.86,176.08,365.89,42.51,88.61,84.71,177.37,127.23,265.97,91.36,190.35,182.86,380.63,274.28,570.96,22.54,46.92,44.93,93.91,67.46,140.84,2.85,5.94,6.09,11.69,10.54,20.19,2.96-6.43,5.17-10.59,6.82-14.95,16.94-44.78,33.75-89.61,50.67-134.4,39.73-105.16,79.55-210.29,119.23-315.47,47.33-125.44,94.47-250.95,141.84-376.37,33.99-89.98,68.27-179.84,102.34-269.79,37.61-99.29,75.36-198.54,112.57-297.98,11.97-31.99,23.55-64.03,39.92-94.18,4.34-8,8.86-11.43,18.13-11.41,105.41.31,210.82.22,316.24.27,3.08,0,6.17.33,9.69,2.62-3.63,1.43-7.19,3.13-10.91,4.23-11.81,3.51-22.03,9.75-31.35,17.63-35.11,29.69-54.52,66.79-58.08,113.31-2.6,33.91,1.48,67.41,1.37,101.11-.05,14.15,1.11,28.31,1.11,42.47.06,550.4.05,1100.8.05,1651.21,0,5.34,0,10.69,0,18.37,5.2-2.87,8.72-4.67,12.1-6.7,69.86-42.15,145.59-55.29,225.82-45.11,57.59,7.31,111.87,24.47,162.63,53.49,32.85,18.78,66.66,36.34,101.4,51.28,48.74,20.97,98.15,21.25,147.79-.66,45.2-19.95,87.88-44.1,127.97-72.55,63.34-44.94,101.37-106.84,117.54-182.53,5.25-24.55,7.51-49.29,7.43-74.42-.34-100.41-.88-200.83-.08-301.24.32-40.03-5.42-78.67-16.52-116.9-4.58-15.78-11.3-30.22-19.78-44.23-20.7-34.22-50.69-55.59-88.64-66.66-5.74-1.67-11.38-3.67-17.06-5.52.18-.96.35-1.92.53-2.87,171.93-.28,343.85-.56,515.78-.75,4.06,0,8.13,1.11,12.89,4.12-3.44,1.6-6.9,3.15-10.31,4.82-19.41,9.51-39.3,18.17-58.08,28.79-27.74,15.69-45.1,39.95-53.99,70.58-7.71,26.52-12.87,53.33-12.87,81.07.07,533.32.05,1066.64.21,1599.96,0,15.77,1.51,31.55,2.77,47.29,2.17,27.14,15.37,48.89,34.24,67.6,25.73,25.52,56.7,41.94,91.28,51.99,3.81,1.11,7.58,2.33,11.03,5.16h-529.98c-.13-.51-.25-1.02-.37-1.53,13.65-4.47,27.32-8.86,40.93-13.44,27.24-9.16,49.17-24.74,65.45-49.2,23.44-35.22,30.13-74.11,30.04-115.23-.04-17.45,1.92-34.9,1.97-52.35.31-108.75.4-217.49.44-326.24.07-167.91.03-335.82.04-503.74,0-4.83,0-9.66,0-17.38-6.23,4.41-10.29,6.99-14.01,9.97-20.79,16.65-40.93,34.18-62.42,49.88-20.48,14.96-41.66,29.26-63.76,41.63-25.81,14.45-53.58,24.36-82.86,30.4-33.77,6.96-67.92,9.04-101.94,6.99-26.01-1.56-52.19-6.33-77.46-12.86-67.65-17.49-134.81-36.85-202.24-55.15-43.77-11.88-87.49-24.09-131.63-34.49-30.06-7.09-60.93-9.67-91.75-4.23-19.44,3.43-35.89,12.85-48.87,27.94-17.48,20.34-26.05,43.21-25.99,70.77.57,239.54.49,479.09.24,718.63-.03,25.51,1.5,50.89,6.11,75.77,7.93,42.79,22.76,82.53,57.02,112.46,15.11,13.2,32.83,21.02,50.81,28.75,8.01,3.45,16.02,6.9,24.02,10.35-.11.98-.22,1.97-.34,2.95Z"/>
</svg>